<svg width="586" height="585" viewBox="0 0 586 585" fill="none" xmlns="http://www.w3.org/2000/svg">
<path d="M326.404 393.278C366.725 378.304 387.774 349.465 387.774 299.83C387.774 250.196 345.949 206.46 293.687 206.375C238.538 206.285 196.936 250.015 197.601 299.83C198.266 349.646 222.022 382.785 260.047 394.769L192.689 560.48C102.536 537.142 10.845 430.788 10.845 299.83C10.845 144.721 135.478 18.9805 291.687 18.9805C447.897 18.9805 574.53 144.721 574.53 299.83C574.53 432.825 483.709 537.695 391.632 560.946L326.404 393.278Z" fill="#3EA639" stroke="#1E541E" stroke-width="19.2122" stroke-linecap="round" stroke-linejoin="round"/>
<path d="M554.324 543.384C555.271 543.705 556.189 544.39 557.079 545.439C557.982 546.489 558.886 547.932 559.79 549.768L564.272 558.689H559.527L555.351 550.315C554.273 548.129 553.223 546.678 552.203 545.964C551.197 545.25 549.82 544.893 548.071 544.893H543.261V558.689H538.845V526.047H548.814C552.546 526.047 555.33 526.827 557.166 528.386C559.003 529.946 559.921 532.3 559.921 535.448C559.921 537.503 559.44 539.208 558.478 540.564C557.53 541.92 556.146 542.86 554.324 543.384ZM543.261 529.676V541.264H548.814C550.942 541.264 552.546 540.775 553.624 539.799C554.717 538.808 555.264 537.357 555.264 535.448C555.264 533.539 554.717 532.103 553.624 531.141C552.546 530.164 550.942 529.676 548.814 529.676H543.261Z" fill="black"/>
<path d="M572.563 542.911C572.564 545.933 571.969 548.926 570.813 551.719C569.657 554.512 567.962 557.049 565.824 559.187C563.687 561.324 561.15 563.02 558.358 564.177C555.565 565.334 552.572 565.929 549.55 565.929C546.527 565.929 543.534 565.334 540.742 564.177C537.949 563.02 535.412 561.324 533.275 559.187C531.138 557.049 529.443 554.512 528.287 551.719C527.13 548.926 526.535 545.933 526.536 542.911C526.535 539.888 527.13 536.895 528.287 534.102C529.443 531.309 531.138 528.772 533.275 526.634C535.412 524.497 537.949 522.801 540.742 521.644C543.534 520.488 546.527 519.892 549.55 519.892C552.572 519.892 555.565 520.488 558.358 521.644C561.15 522.801 563.687 524.497 565.824 526.634C567.962 528.772 569.657 531.309 570.813 534.102C571.969 536.895 572.564 539.888 572.563 542.911Z" stroke="black" stroke-width="3.97291" stroke-linecap="round" stroke-linejoin="round"/>
</svg>
