<!-- https://bgjar.com/hexagon -->
<svg xmlns="http://www.w3.org/2000/svg" version="1.1" xmlns:xlink="http://www.w3.org/1999/xlink" xmlns:svgjs="http://svgjs.com/svgjs" width="1440" height="560" preserveAspectRatio="none" viewBox="0 0 1440 560">
    <g mask="url(&quot;#SvgjsMask1431&quot;)" fill="none">
        <path d="M46.86 131.79L98.82 161.79L98.82 221.79L46.86 251.79L-5.1 221.79L-5.1 161.79zM202.75 401.79L254.71 431.79L254.71 491.79L202.75 521.79L150.79 491.79L150.79 431.79zM254.71 131.79L306.68 161.79L306.68 221.79L254.71 251.79L202.75 221.79L202.75 161.79zM410.6 41.79L462.56 71.79L462.56 131.79L410.6 161.79L358.64 131.79L358.64 71.79zM410.6 401.79L462.56 431.79L462.56 491.79L410.6 521.79L358.64 491.79L358.64 431.79zM462.56 -48.21L514.53 -18.21L514.53 41.79L462.56 71.79L410.6 41.79L410.6 -18.21zM514.53 41.79L566.49 71.79L566.49 131.79L514.53 161.79L462.56 131.79L462.56 71.79zM462.56 311.79L514.53 341.79L514.53 401.79L462.56 431.79L410.6 401.79L410.6 341.79zM514.53 401.79L566.49 431.79L566.49 491.79L514.53 521.79L462.56 491.79L462.56 431.79zM566.49 311.79L618.45 341.79L618.45 401.79L566.49 431.79L514.53 401.79L514.53 341.79zM566.49 491.79L618.45 521.79L618.45 581.79L566.49 611.79L514.53 581.79L514.53 521.79zM722.38 401.79L774.34 431.79L774.34 491.79L722.38 521.79L670.42 491.79L670.42 431.79zM826.3 41.79L878.27 71.79L878.27 131.79L826.3 161.79L774.34 131.79L774.34 71.79zM774.34 131.79L826.3 161.79L826.3 221.79L774.34 251.79L722.38 221.79L722.38 161.79zM826.3 221.79L878.27 251.79L878.27 311.79L826.3 341.79L774.34 311.79L774.34 251.79zM1034.16 221.79L1086.12 251.79L1086.12 311.79L1034.16 341.79L982.19 311.79L982.19 251.79zM982.19 311.79L1034.16 341.79L1034.16 401.79L982.19 431.79L930.23 401.79L930.23 341.79zM1086.12 491.79L1138.08 521.79L1138.08 581.79L1086.12 611.79L1034.16 581.79L1034.16 521.79zM1242.01 41.79L1293.97 71.79L1293.97 131.79L1242.01 161.79L1190.05 131.79L1190.05 71.79zM1242.01 221.79L1293.97 251.79L1293.97 311.79L1242.01 341.79L1190.05 311.79L1190.05 251.79zM1345.93 41.79L1397.9 71.79L1397.9 131.79L1345.93 161.79L1293.97 131.79L1293.97 71.79zM1449.86 221.79L1501.82 251.79L1501.82 311.79L1449.86 341.79L1397.9 311.79L1397.9 251.79zM1397.9 491.79L1449.86 521.79L1449.86 581.79L1397.9 611.79L1345.93 581.79L1345.93 521.79z" stroke="rgba(64, 104, 130, 1)" stroke-width="2"></path>
        <path d="M40.86 131.79 a6 6 0 1 0 12 0 a6 6 0 1 0 -12 0zM92.82 161.79 a6 6 0 1 0 12 0 a6 6 0 1 0 -12 0zM92.82 221.79 a6 6 0 1 0 12 0 a6 6 0 1 0 -12 0zM40.86 251.79 a6 6 0 1 0 12 0 a6 6 0 1 0 -12 0zM-11.1 221.79 a6 6 0 1 0 12 0 a6 6 0 1 0 -12 0zM-11.1 161.79 a6 6 0 1 0 12 0 a6 6 0 1 0 -12 0zM196.75 401.79 a6 6 0 1 0 12 0 a6 6 0 1 0 -12 0zM248.71 431.79 a6 6 0 1 0 12 0 a6 6 0 1 0 -12 0zM248.71 491.79 a6 6 0 1 0 12 0 a6 6 0 1 0 -12 0zM196.75 521.79 a6 6 0 1 0 12 0 a6 6 0 1 0 -12 0zM144.79 491.79 a6 6 0 1 0 12 0 a6 6 0 1 0 -12 0zM144.79 431.79 a6 6 0 1 0 12 0 a6 6 0 1 0 -12 0zM248.71 131.79 a6 6 0 1 0 12 0 a6 6 0 1 0 -12 0zM300.68 161.79 a6 6 0 1 0 12 0 a6 6 0 1 0 -12 0zM300.68 221.79 a6 6 0 1 0 12 0 a6 6 0 1 0 -12 0zM248.71 251.79 a6 6 0 1 0 12 0 a6 6 0 1 0 -12 0zM196.75 221.79 a6 6 0 1 0 12 0 a6 6 0 1 0 -12 0zM196.75 161.79 a6 6 0 1 0 12 0 a6 6 0 1 0 -12 0zM404.6 41.79 a6 6 0 1 0 12 0 a6 6 0 1 0 -12 0zM456.56 71.79 a6 6 0 1 0 12 0 a6 6 0 1 0 -12 0zM456.56 131.79 a6 6 0 1 0 12 0 a6 6 0 1 0 -12 0zM404.6 161.79 a6 6 0 1 0 12 0 a6 6 0 1 0 -12 0zM352.64 131.79 a6 6 0 1 0 12 0 a6 6 0 1 0 -12 0zM352.64 71.79 a6 6 0 1 0 12 0 a6 6 0 1 0 -12 0zM404.6 401.79 a6 6 0 1 0 12 0 a6 6 0 1 0 -12 0zM456.56 431.79 a6 6 0 1 0 12 0 a6 6 0 1 0 -12 0zM456.56 491.79 a6 6 0 1 0 12 0 a6 6 0 1 0 -12 0zM404.6 521.79 a6 6 0 1 0 12 0 a6 6 0 1 0 -12 0zM352.64 491.79 a6 6 0 1 0 12 0 a6 6 0 1 0 -12 0zM352.64 431.79 a6 6 0 1 0 12 0 a6 6 0 1 0 -12 0zM456.56 -48.21 a6 6 0 1 0 12 0 a6 6 0 1 0 -12 0zM508.53 -18.21 a6 6 0 1 0 12 0 a6 6 0 1 0 -12 0zM508.53 41.79 a6 6 0 1 0 12 0 a6 6 0 1 0 -12 0zM404.6 -18.21 a6 6 0 1 0 12 0 a6 6 0 1 0 -12 0zM560.49 71.79 a6 6 0 1 0 12 0 a6 6 0 1 0 -12 0zM560.49 131.79 a6 6 0 1 0 12 0 a6 6 0 1 0 -12 0zM508.53 161.79 a6 6 0 1 0 12 0 a6 6 0 1 0 -12 0zM456.56 311.79 a6 6 0 1 0 12 0 a6 6 0 1 0 -12 0zM508.53 341.79 a6 6 0 1 0 12 0 a6 6 0 1 0 -12 0zM508.53 401.79 a6 6 0 1 0 12 0 a6 6 0 1 0 -12 0zM404.6 341.79 a6 6 0 1 0 12 0 a6 6 0 1 0 -12 0zM560.49 431.79 a6 6 0 1 0 12 0 a6 6 0 1 0 -12 0zM560.49 491.79 a6 6 0 1 0 12 0 a6 6 0 1 0 -12 0zM508.53 521.79 a6 6 0 1 0 12 0 a6 6 0 1 0 -12 0zM560.49 311.79 a6 6 0 1 0 12 0 a6 6 0 1 0 -12 0zM612.45 341.79 a6 6 0 1 0 12 0 a6 6 0 1 0 -12 0zM612.45 401.79 a6 6 0 1 0 12 0 a6 6 0 1 0 -12 0zM612.45 521.79 a6 6 0 1 0 12 0 a6 6 0 1 0 -12 0zM612.45 581.79 a6 6 0 1 0 12 0 a6 6 0 1 0 -12 0zM560.49 611.79 a6 6 0 1 0 12 0 a6 6 0 1 0 -12 0zM508.53 581.79 a6 6 0 1 0 12 0 a6 6 0 1 0 -12 0zM716.38 401.79 a6 6 0 1 0 12 0 a6 6 0 1 0 -12 0zM768.34 431.79 a6 6 0 1 0 12 0 a6 6 0 1 0 -12 0zM768.34 491.79 a6 6 0 1 0 12 0 a6 6 0 1 0 -12 0zM716.38 521.79 a6 6 0 1 0 12 0 a6 6 0 1 0 -12 0zM664.42 491.79 a6 6 0 1 0 12 0 a6 6 0 1 0 -12 0zM664.42 431.79 a6 6 0 1 0 12 0 a6 6 0 1 0 -12 0zM820.3 41.79 a6 6 0 1 0 12 0 a6 6 0 1 0 -12 0zM872.27 71.79 a6 6 0 1 0 12 0 a6 6 0 1 0 -12 0zM872.27 131.79 a6 6 0 1 0 12 0 a6 6 0 1 0 -12 0zM820.3 161.79 a6 6 0 1 0 12 0 a6 6 0 1 0 -12 0zM768.34 131.79 a6 6 0 1 0 12 0 a6 6 0 1 0 -12 0zM768.34 71.79 a6 6 0 1 0 12 0 a6 6 0 1 0 -12 0zM820.3 221.79 a6 6 0 1 0 12 0 a6 6 0 1 0 -12 0zM768.34 251.79 a6 6 0 1 0 12 0 a6 6 0 1 0 -12 0zM716.38 221.79 a6 6 0 1 0 12 0 a6 6 0 1 0 -12 0zM716.38 161.79 a6 6 0 1 0 12 0 a6 6 0 1 0 -12 0zM872.27 251.79 a6 6 0 1 0 12 0 a6 6 0 1 0 -12 0zM872.27 311.79 a6 6 0 1 0 12 0 a6 6 0 1 0 -12 0zM820.3 341.79 a6 6 0 1 0 12 0 a6 6 0 1 0 -12 0zM768.34 311.79 a6 6 0 1 0 12 0 a6 6 0 1 0 -12 0zM1028.16 221.79 a6 6 0 1 0 12 0 a6 6 0 1 0 -12 0zM1080.12 251.79 a6 6 0 1 0 12 0 a6 6 0 1 0 -12 0zM1080.12 311.79 a6 6 0 1 0 12 0 a6 6 0 1 0 -12 0zM1028.16 341.79 a6 6 0 1 0 12 0 a6 6 0 1 0 -12 0zM976.19 311.79 a6 6 0 1 0 12 0 a6 6 0 1 0 -12 0zM976.19 251.79 a6 6 0 1 0 12 0 a6 6 0 1 0 -12 0zM1028.16 401.79 a6 6 0 1 0 12 0 a6 6 0 1 0 -12 0zM976.19 431.79 a6 6 0 1 0 12 0 a6 6 0 1 0 -12 0zM924.23 401.79 a6 6 0 1 0 12 0 a6 6 0 1 0 -12 0zM924.23 341.79 a6 6 0 1 0 12 0 a6 6 0 1 0 -12 0zM1080.12 491.79 a6 6 0 1 0 12 0 a6 6 0 1 0 -12 0zM1132.08 521.79 a6 6 0 1 0 12 0 a6 6 0 1 0 -12 0zM1132.08 581.79 a6 6 0 1 0 12 0 a6 6 0 1 0 -12 0zM1080.12 611.79 a6 6 0 1 0 12 0 a6 6 0 1 0 -12 0zM1028.16 581.79 a6 6 0 1 0 12 0 a6 6 0 1 0 -12 0zM1028.16 521.79 a6 6 0 1 0 12 0 a6 6 0 1 0 -12 0zM1236.01 41.79 a6 6 0 1 0 12 0 a6 6 0 1 0 -12 0zM1287.97 71.79 a6 6 0 1 0 12 0 a6 6 0 1 0 -12 0zM1287.97 131.79 a6 6 0 1 0 12 0 a6 6 0 1 0 -12 0zM1236.01 161.79 a6 6 0 1 0 12 0 a6 6 0 1 0 -12 0zM1184.05 131.79 a6 6 0 1 0 12 0 a6 6 0 1 0 -12 0zM1184.05 71.79 a6 6 0 1 0 12 0 a6 6 0 1 0 -12 0zM1236.01 221.79 a6 6 0 1 0 12 0 a6 6 0 1 0 -12 0zM1287.97 251.79 a6 6 0 1 0 12 0 a6 6 0 1 0 -12 0zM1287.97 311.79 a6 6 0 1 0 12 0 a6 6 0 1 0 -12 0zM1236.01 341.79 a6 6 0 1 0 12 0 a6 6 0 1 0 -12 0zM1184.05 311.79 a6 6 0 1 0 12 0 a6 6 0 1 0 -12 0zM1184.05 251.79 a6 6 0 1 0 12 0 a6 6 0 1 0 -12 0zM1339.93 41.79 a6 6 0 1 0 12 0 a6 6 0 1 0 -12 0zM1391.9 71.79 a6 6 0 1 0 12 0 a6 6 0 1 0 -12 0zM1391.9 131.79 a6 6 0 1 0 12 0 a6 6 0 1 0 -12 0zM1339.93 161.79 a6 6 0 1 0 12 0 a6 6 0 1 0 -12 0zM1443.86 221.79 a6 6 0 1 0 12 0 a6 6 0 1 0 -12 0zM1495.82 251.79 a6 6 0 1 0 12 0 a6 6 0 1 0 -12 0zM1495.82 311.79 a6 6 0 1 0 12 0 a6 6 0 1 0 -12 0zM1443.86 341.79 a6 6 0 1 0 12 0 a6 6 0 1 0 -12 0zM1391.9 311.79 a6 6 0 1 0 12 0 a6 6 0 1 0 -12 0zM1391.9 251.79 a6 6 0 1 0 12 0 a6 6 0 1 0 -12 0zM1391.9 491.79 a6 6 0 1 0 12 0 a6 6 0 1 0 -12 0zM1443.86 521.79 a6 6 0 1 0 12 0 a6 6 0 1 0 -12 0zM1443.86 581.79 a6 6 0 1 0 12 0 a6 6 0 1 0 -12 0zM1391.9 611.79 a6 6 0 1 0 12 0 a6 6 0 1 0 -12 0zM1339.93 581.79 a6 6 0 1 0 12 0 a6 6 0 1 0 -12 0zM1339.93 521.79 a6 6 0 1 0 12 0 a6 6 0 1 0 -12 0z" fill="rgba(64, 104, 130, 1)"></path>
        <path d="M79.48 344.06L105.46 359.06L105.46 389.06L79.48 404.06L53.5 389.06L53.5 359.06zM105.46 389.06L131.45 404.06L131.45 434.06L105.46 449.06L79.48 434.06L79.48 404.06zM157.43 119.06L183.41 134.06L183.41 164.06L157.43 179.06L131.45 164.06L131.45 134.06zM261.35 119.06L287.33 134.06L287.33 164.06L261.35 179.06L235.37 164.06L235.37 134.06zM313.32 209.06L339.3 224.06L339.3 254.06L313.32 269.06L287.33 254.06L287.33 224.06zM287.33 344.06L313.32 359.06L313.32 389.06L287.33 404.06L261.35 389.06L261.35 359.06zM313.32 479.06L339.3 494.06L339.3 524.06L313.32 539.06L287.33 524.06L287.33 494.06zM339.3 434.06L365.28 449.06L365.28 479.06L339.3 494.06L313.32 479.06L313.32 449.06zM443.22 434.06L469.21 449.06L469.21 479.06L443.22 494.06L417.24 479.06L417.24 449.06zM495.19 -15.94L521.17 -0.94L521.17 29.06L495.19 44.06L469.21 29.06L469.21 -0.94zM573.13 209.06L599.11 224.06L599.11 254.06L573.13 269.06L547.15 254.06L547.15 224.06zM547.15 524.06L573.13 539.06L573.13 569.06L547.15 584.06L521.17 569.06L521.17 539.06zM625.09 29.06L651.08 44.06L651.08 74.06L625.09 89.06L599.11 74.06L599.11 44.06zM599.11 164.06L625.09 179.06L625.09 209.06L599.11 224.06L573.13 209.06L573.13 179.06zM625.09 389.06L651.08 404.06L651.08 434.06L625.09 449.06L599.11 434.06L599.11 404.06zM677.06 29.06L703.04 44.06L703.04 74.06L677.06 89.06L651.08 74.06L651.08 44.06zM651.08 434.06L677.06 449.06L677.06 479.06L651.08 494.06L625.09 479.06L625.09 449.06zM703.04 74.06L729.02 89.06L729.02 119.06L703.04 134.06L677.06 119.06L677.06 89.06zM755 254.06L780.98 269.06L780.98 299.06L755 314.06L729.02 299.06L729.02 269.06zM806.97 254.06L832.95 269.06L832.95 299.06L806.97 314.06L780.98 299.06L780.98 269.06zM806.97 344.06L832.95 359.06L832.95 389.06L806.97 404.06L780.98 389.06L780.98 359.06zM858.93 524.06L884.91 539.06L884.91 569.06L858.93 584.06L832.95 569.06L832.95 539.06zM936.87 119.06L962.85 134.06L962.85 164.06L936.87 179.06L910.89 164.06L910.89 134.06zM962.85 -15.94L988.84 -0.94L988.84 29.06L962.85 44.06L936.87 29.06L936.87 -0.94zM1040.8 29.06L1066.78 44.06L1066.78 74.06L1040.8 89.06L1014.82 74.06L1014.82 44.06zM1040.8 389.06L1066.78 404.06L1066.78 434.06L1040.8 449.06L1014.82 434.06L1014.82 404.06zM1014.82 434.06L1040.8 449.06L1040.8 479.06L1014.82 494.06L988.84 479.06L988.84 449.06zM1092.76 29.06L1118.74 44.06L1118.74 74.06L1092.76 89.06L1066.78 74.06L1066.78 44.06zM1196.69 389.06L1222.67 404.06L1222.67 434.06L1196.69 449.06L1170.71 434.06L1170.71 404.06zM1352.58 29.06L1378.56 44.06L1378.56 74.06L1352.58 89.06L1326.6 74.06L1326.6 44.06zM1352.58 299.06L1378.56 314.06L1378.56 344.06L1352.58 359.06L1326.6 344.06L1326.6 314.06zM1378.56 254.06L1404.54 269.06L1404.54 299.06L1378.56 314.06L1352.58 299.06L1352.58 269.06z" stroke="rgba(105, 152, 171, 1)" stroke-width="2"></path>
    </g>
    <defs>
        <mask id="SvgjsMask1431">
            <rect width="1440" height="560" fill="#ffffff"></rect>
        </mask>
    </defs>
</svg>