<!-- https://bgjar.com/meteor -->
<svg xmlns="http://www.w3.org/2000/svg" version="1.1" xmlns:xlink="http://www.w3.org/1999/xlink" xmlns:svgjs="http://svgjs.com/svgjs" width="1440" height="560" preserveAspectRatio="none" viewBox="0 0 1440 560">
    <g mask="url(&quot;#SvgjsMask1045&quot;)" fill="none">
        <path d="M908 312L907 635" stroke-width="8" stroke="url(#SvgjsLinearGradient1046)" stroke-linecap="round" class="Up"></path>
        <path d="M1396 152L1395 343" stroke-width="10" stroke="url(#SvgjsLinearGradient1046)" stroke-linecap="round" class="Up"></path>
        <path d="M724 37L723 -143" stroke-width="10" stroke="url(#SvgjsLinearGradient1046)" stroke-linecap="round" class="Up"></path>
        <path d="M969 227L968 451" stroke-width="8" stroke="url(#SvgjsLinearGradient1046)" stroke-linecap="round" class="Up"></path>
        <path d="M1393 194L1392 453" stroke-width="10" stroke="url(#SvgjsLinearGradient1046)" stroke-linecap="round" class="Up"></path>
        <path d="M594 412L593 755" stroke-width="10" stroke="url(#SvgjsLinearGradient1047)" stroke-linecap="round" class="Down"></path>
        <path d="M1153 83L1152 476" stroke-width="10" stroke="url(#SvgjsLinearGradient1046)" stroke-linecap="round" class="Up"></path>
        <path d="M545 86L544 397" stroke-width="8" stroke="url(#SvgjsLinearGradient1047)" stroke-linecap="round" class="Down"></path>
        <path d="M1435 291L1434 489" stroke-width="6" stroke="url(#SvgjsLinearGradient1047)" stroke-linecap="round" class="Down"></path>
        <path d="M571 312L570 45" stroke-width="8" stroke="url(#SvgjsLinearGradient1047)" stroke-linecap="round" class="Down"></path>
        <path d="M1427 298L1426 -88" stroke-width="10" stroke="url(#SvgjsLinearGradient1046)" stroke-linecap="round" class="Up"></path>
        <path d="M1011 387L1010 755" stroke-width="8" stroke="url(#SvgjsLinearGradient1047)" stroke-linecap="round" class="Down"></path>
        <path d="M93 192L92 383" stroke-width="8" stroke="url(#SvgjsLinearGradient1046)" stroke-linecap="round" class="Up"></path>
        <path d="M441 58L440 -168" stroke-width="8" stroke="url(#SvgjsLinearGradient1047)" stroke-linecap="round" class="Down"></path>
        <path d="M61 7L60 376" stroke-width="8" stroke="url(#SvgjsLinearGradient1047)" stroke-linecap="round" class="Down"></path>
        <path d="M1113 206L1112 -135" stroke-width="6" stroke="url(#SvgjsLinearGradient1047)" stroke-linecap="round" class="Down"></path>
        <path d="M271 483L270 692" stroke-width="8" stroke="url(#SvgjsLinearGradient1046)" stroke-linecap="round" class="Up"></path>
        <path d="M292 390L291 66" stroke-width="8" stroke="url(#SvgjsLinearGradient1046)" stroke-linecap="round" class="Up"></path>
        <path d="M1229 53L1228 430" stroke-width="8" stroke="url(#SvgjsLinearGradient1047)" stroke-linecap="round" class="Down"></path>
        <path d="M1026 76L1025 -316" stroke-width="6" stroke="url(#SvgjsLinearGradient1046)" stroke-linecap="round" class="Up"></path>
        <path d="M1298 252L1297 74" stroke-width="10" stroke="url(#SvgjsLinearGradient1047)" stroke-linecap="round" class="Down"></path>
        <path d="M876 192L875 560" stroke-width="6" stroke="url(#SvgjsLinearGradient1047)" stroke-linecap="round" class="Down"></path>
        <path d="M282 21L281 -221" stroke-width="10" stroke="url(#SvgjsLinearGradient1047)" stroke-linecap="round" class="Down"></path>
        <path d="M1291 460L1290 632" stroke-width="6" stroke="url(#SvgjsLinearGradient1046)" stroke-linecap="round" class="Up"></path>
        <path d="M802 544L801 763" stroke-width="10" stroke="url(#SvgjsLinearGradient1046)" stroke-linecap="round" class="Up"></path>
        <path d="M1126 511L1125 203" stroke-width="8" stroke="url(#SvgjsLinearGradient1047)" stroke-linecap="round" class="Down"></path>
        <path d="M427 227L426 370" stroke-width="6" stroke="url(#SvgjsLinearGradient1047)" stroke-linecap="round" class="Down"></path>
        <path d="M1156 509L1155 92" stroke-width="8" stroke="url(#SvgjsLinearGradient1047)" stroke-linecap="round" class="Down"></path>
        <path d="M1042 123L1041 -184" stroke-width="6" stroke="url(#SvgjsLinearGradient1047)" stroke-linecap="round" class="Down"></path>
        <path d="M747 255L746 538" stroke-width="10" stroke="url(#SvgjsLinearGradient1046)" stroke-linecap="round" class="Up"></path>
        <path d="M1415 91L1414 283" stroke-width="6" stroke="url(#SvgjsLinearGradient1047)" stroke-linecap="round" class="Down"></path>
        <path d="M701 65L700 295" stroke-width="6" stroke="url(#SvgjsLinearGradient1046)" stroke-linecap="round" class="Up"></path>
        <path d="M417 412L416 241" stroke-width="8" stroke="url(#SvgjsLinearGradient1046)" stroke-linecap="round" class="Up"></path>
        <path d="M1424 87L1423 302" stroke-width="10" stroke="url(#SvgjsLinearGradient1047)" stroke-linecap="round" class="Down"></path>
        <path d="M858 496L857 853" stroke-width="6" stroke="url(#SvgjsLinearGradient1047)" stroke-linecap="round" class="Down"></path>
        <path d="M39 232L38 487" stroke-width="10" stroke="url(#SvgjsLinearGradient1047)" stroke-linecap="round" class="Down"></path>
    </g>
    <defs>
        <mask id="SvgjsMask1045">
            <rect width="1440" height="560" fill="#ffffff"></rect>
        </mask>
        <linearGradient x1="0%" y1="100%" x2="0%" y2="0%" id="SvgjsLinearGradient1046">
            <stop stop-color="rgba(163, 146, 112, 0)" offset="0"></stop>
            <stop stop-color="rgba(163, 146, 112, 1)" offset="1"></stop>
        </linearGradient>
        <linearGradient x1="0%" y1="0%" x2="0%" y2="100%" id="SvgjsLinearGradient1047">
            <stop stop-color="rgba(163, 146, 112, 0)" offset="0"></stop>
            <stop stop-color="rgba(163, 146, 112, 1)" offset="1"></stop>
        </linearGradient>
    </defs>
</svg>