<svg xmlns="http://www.w3.org/2000/svg" version="1.1" xmlns:xlink="http://www.w3.org/1999/xlink" xmlns:svgjs="http://svgjs.com/svgjs" width="1440" height="7560" preserveAspectRatio="none" viewBox="0 0 1440 7560"><g mask="url(&quot;#SvgjsMask1144&quot;)" fill="none"><path d="M153.56 998.77L240.16 1048.77L240.16 1148.77L153.56 1198.77L66.95 1148.77L66.95 1048.77zM66.95 1148.77L153.56 1198.77L153.56 1298.77L66.95 1348.77L-19.66 1298.77L-19.66 1198.77zM153.56 1298.77L240.16 1348.77L240.16 1448.77L153.56 1498.77L66.95 1448.77L66.95 1348.77zM66.95 2948.77L153.56 2998.77L153.56 3098.77L66.95 3148.77L-19.66 3098.77L-19.66 2998.77zM153.56 6998.77L240.16 7048.77L240.16 7148.77L153.56 7198.77L66.95 7148.77L66.95 7048.77zM153.56 7298.77L240.16 7348.77L240.16 7448.77L153.56 7498.77L66.95 7448.77L66.95 7348.77zM240.16 2648.77L326.76 2698.77L326.76 2798.77L240.16 2848.77L153.56 2798.77L153.56 2698.77zM326.76 2798.77L413.37 2848.77L413.37 2948.77L326.76 2998.77L240.16 2948.77L240.16 2848.77zM326.76 3698.77L413.37 3748.77L413.37 3848.77L326.76 3898.77L240.16 3848.77L240.16 3748.77zM240.16 3848.77L326.76 3898.77L326.76 3998.77L240.16 4048.77L153.56 3998.77L153.56 3898.77zM326.76 3998.77L413.37 4048.77L413.37 4148.77L326.76 4198.77L240.16 4148.77L240.16 4048.77zM326.76 4298.77L413.37 4348.77L413.37 4448.77L326.76 4498.77L240.16 4448.77L240.16 4348.77zM326.76 4898.77L413.37 4948.77L413.37 5048.77L326.76 5098.77L240.16 5048.77L240.16 4948.77zM326.76 5798.77L413.37 5848.77L413.37 5948.77L326.76 5998.77L240.16 5948.77L240.16 5848.77zM326.76 6398.77L413.37 6448.77L413.37 6548.77L326.76 6598.77L240.16 6548.77L240.16 6448.77zM326.76 6698.77L413.37 6748.77L413.37 6848.77L326.76 6898.77L240.16 6848.77L240.16 6748.77zM326.76 6998.77L413.37 7048.77L413.37 7148.77L326.76 7198.77L240.16 7148.77L240.16 7048.77zM240.16 7148.77L326.76 7198.77L326.76 7298.77L240.16 7348.77L153.56 7298.77L153.56 7198.77zM413.37 248.77L499.98 298.77L499.98 398.77L413.37 448.77L326.76 398.77L326.76 298.77zM413.37 1148.77L499.98 1198.77L499.98 1298.77L413.37 1348.77L326.76 1298.77L326.76 1198.77zM499.98 3098.77L586.58 3148.77L586.58 3248.77L499.98 3298.77L413.37 3248.77L413.37 3148.77zM413.37 5048.77L499.98 5098.77L499.98 5198.77L413.37 5248.77L326.76 5198.77L326.76 5098.77zM673.19 3698.77L759.79 3748.77L759.79 3848.77L673.19 3898.77L586.58 3848.77L586.58 3748.77zM586.58 5648.77L673.19 5698.77L673.19 5798.77L586.58 5848.77L499.97 5798.77L499.97 5698.77zM586.58 6248.77L673.19 6298.77L673.19 6398.77L586.58 6448.77L499.97 6398.77L499.97 6298.77zM586.58 6848.77L673.19 6898.77L673.19 6998.77L586.58 7048.77L499.97 6998.77L499.97 6898.77zM759.79 848.77L846.4 898.77L846.4 998.77L759.79 1048.77L673.19 998.77L673.19 898.77zM759.79 2048.77L846.4 2098.77L846.4 2198.77L759.79 2248.77L673.19 2198.77L673.19 2098.77zM846.4 5198.77L933 5248.77L933 5348.77L846.4 5398.77L759.79 5348.77L759.79 5248.77zM759.79 5648.77L846.4 5698.77L846.4 5798.77L759.79 5848.77L673.19 5798.77L673.19 5698.77zM846.4 6998.77L933 7048.77L933 7148.77L846.4 7198.77L759.79 7148.77L759.79 7048.77zM1019.61 1298.77L1106.21 1348.77L1106.21 1448.77L1019.61 1498.77L933 1448.77L933 1348.77zM1019.61 1898.77L1106.21 1948.77L1106.21 2048.77L1019.61 2098.77L933 2048.77L933 1948.77zM1019.61 2798.77L1106.21 2848.77L1106.21 2948.77L1019.61 2998.77L933 2948.77L933 2848.77zM933 3248.77L1019.61 3298.77L1019.61 3398.77L933 3448.77L846.4 3398.77L846.4 3298.77zM1019.61 3998.77L1106.21 4048.77L1106.21 4148.77L1019.61 4198.77L933 4148.77L933 4048.77zM1019.61 4898.77L1106.21 4948.77L1106.21 5048.77L1019.61 5098.77L933 5048.77L933 4948.77zM933 5048.77L1019.61 5098.77L1019.61 5198.77L933 5248.77L846.4 5198.77L846.4 5098.77zM1019.61 6698.77L1106.21 6748.77L1106.21 6848.77L1019.61 6898.77L933 6848.77L933 6748.77zM1192.82 3098.77L1279.42 3148.77L1279.42 3248.77L1192.82 3298.77L1106.21 3248.77L1106.21 3148.77zM1106.21 4748.77L1192.82 4798.77L1192.82 4898.77L1106.21 4948.77L1019.61 4898.77L1019.61 4798.77zM1192.82 6398.77L1279.42 6448.77L1279.42 6548.77L1192.82 6598.77L1106.21 6548.77L1106.21 6448.77zM1192.82 6698.77L1279.42 6748.77L1279.42 6848.77L1192.82 6898.77L1106.21 6848.77L1106.21 6748.77zM1279.42 5348.77L1366.03 5398.77L1366.03 5498.77L1279.42 5548.77L1192.82 5498.77L1192.82 5398.77zM1366.03 6098.77L1452.63 6148.77L1452.63 6248.77L1366.03 6298.77L1279.42 6248.77L1279.42 6148.77zM1279.42 6248.77L1366.03 6298.77L1366.03 6398.77L1279.42 6448.77L1192.82 6398.77L1192.82 6298.77zM1452.63 248.77L1539.24 298.77L1539.24 398.77L1452.63 448.77L1366.03 398.77L1366.03 298.77zM1452.63 848.77L1539.24 898.77L1539.24 998.77L1452.63 1048.77L1366.03 998.77L1366.03 898.77zM1452.63 3248.77L1539.24 3298.77L1539.24 3398.77L1452.63 3448.77L1366.03 3398.77L1366.03 3298.77zM1452.63 6848.77L1539.24 6898.77L1539.24 6998.77L1452.63 7048.77L1366.03 6998.77L1366.03 6898.77zM1452.63 7448.77L1539.24 7498.77L1539.24 7598.77L1452.63 7648.77L1366.03 7598.77L1366.03 7498.77z" stroke="rgba(64, 104, 130, 1)" stroke-width="2"></path><path d="M143.56 998.77 a10 10 0 1 0 20 0 a10 10 0 1 0 -20 0zM230.16 1048.77 a10 10 0 1 0 20 0 a10 10 0 1 0 -20 0zM230.16 1148.77 a10 10 0 1 0 20 0 a10 10 0 1 0 -20 0zM143.56 1198.77 a10 10 0 1 0 20 0 a10 10 0 1 0 -20 0zM56.95 1148.77 a10 10 0 1 0 20 0 a10 10 0 1 0 -20 0zM56.95 1048.77 a10 10 0 1 0 20 0 a10 10 0 1 0 -20 0zM143.56 1298.77 a10 10 0 1 0 20 0 a10 10 0 1 0 -20 0zM56.95 1348.77 a10 10 0 1 0 20 0 a10 10 0 1 0 -20 0zM-29.66 1298.77 a10 10 0 1 0 20 0 a10 10 0 1 0 -20 0zM-29.66 1198.77 a10 10 0 1 0 20 0 a10 10 0 1 0 -20 0zM230.16 1348.77 a10 10 0 1 0 20 0 a10 10 0 1 0 -20 0zM230.16 1448.77 a10 10 0 1 0 20 0 a10 10 0 1 0 -20 0zM143.56 1498.77 a10 10 0 1 0 20 0 a10 10 0 1 0 -20 0zM56.95 1448.77 a10 10 0 1 0 20 0 a10 10 0 1 0 -20 0zM56.95 2948.77 a10 10 0 1 0 20 0 a10 10 0 1 0 -20 0zM143.56 2998.77 a10 10 0 1 0 20 0 a10 10 0 1 0 -20 0zM143.56 3098.77 a10 10 0 1 0 20 0 a10 10 0 1 0 -20 0zM56.95 3148.77 a10 10 0 1 0 20 0 a10 10 0 1 0 -20 0zM-29.66 3098.77 a10 10 0 1 0 20 0 a10 10 0 1 0 -20 0zM-29.66 2998.77 a10 10 0 1 0 20 0 a10 10 0 1 0 -20 0zM143.56 6998.77 a10 10 0 1 0 20 0 a10 10 0 1 0 -20 0zM230.16 7048.77 a10 10 0 1 0 20 0 a10 10 0 1 0 -20 0zM230.16 7148.77 a10 10 0 1 0 20 0 a10 10 0 1 0 -20 0zM143.56 7198.77 a10 10 0 1 0 20 0 a10 10 0 1 0 -20 0zM56.95 7148.77 a10 10 0 1 0 20 0 a10 10 0 1 0 -20 0zM56.95 7048.77 a10 10 0 1 0 20 0 a10 10 0 1 0 -20 0zM143.56 7298.77 a10 10 0 1 0 20 0 a10 10 0 1 0 -20 0zM230.16 7348.77 a10 10 0 1 0 20 0 a10 10 0 1 0 -20 0zM230.16 7448.77 a10 10 0 1 0 20 0 a10 10 0 1 0 -20 0zM143.56 7498.77 a10 10 0 1 0 20 0 a10 10 0 1 0 -20 0zM56.95 7448.77 a10 10 0 1 0 20 0 a10 10 0 1 0 -20 0zM56.95 7348.77 a10 10 0 1 0 20 0 a10 10 0 1 0 -20 0zM230.16 2648.77 a10 10 0 1 0 20 0 a10 10 0 1 0 -20 0zM316.76 2698.77 a10 10 0 1 0 20 0 a10 10 0 1 0 -20 0zM316.76 2798.77 a10 10 0 1 0 20 0 a10 10 0 1 0 -20 0zM230.16 2848.77 a10 10 0 1 0 20 0 a10 10 0 1 0 -20 0zM143.56 2798.77 a10 10 0 1 0 20 0 a10 10 0 1 0 -20 0zM143.56 2698.77 a10 10 0 1 0 20 0 a10 10 0 1 0 -20 0zM403.37 2848.77 a10 10 0 1 0 20 0 a10 10 0 1 0 -20 0zM403.37 2948.77 a10 10 0 1 0 20 0 a10 10 0 1 0 -20 0zM316.76 2998.77 a10 10 0 1 0 20 0 a10 10 0 1 0 -20 0zM230.16 2948.77 a10 10 0 1 0 20 0 a10 10 0 1 0 -20 0zM316.76 3698.77 a10 10 0 1 0 20 0 a10 10 0 1 0 -20 0zM403.37 3748.77 a10 10 0 1 0 20 0 a10 10 0 1 0 -20 0zM403.37 3848.77 a10 10 0 1 0 20 0 a10 10 0 1 0 -20 0zM316.76 3898.77 a10 10 0 1 0 20 0 a10 10 0 1 0 -20 0zM230.16 3848.77 a10 10 0 1 0 20 0 a10 10 0 1 0 -20 0zM230.16 3748.77 a10 10 0 1 0 20 0 a10 10 0 1 0 -20 0zM316.76 3998.77 a10 10 0 1 0 20 0 a10 10 0 1 0 -20 0zM230.16 4048.77 a10 10 0 1 0 20 0 a10 10 0 1 0 -20 0zM143.56 3998.77 a10 10 0 1 0 20 0 a10 10 0 1 0 -20 0zM143.56 3898.77 a10 10 0 1 0 20 0 a10 10 0 1 0 -20 0zM403.37 4048.77 a10 10 0 1 0 20 0 a10 10 0 1 0 -20 0zM403.37 4148.77 a10 10 0 1 0 20 0 a10 10 0 1 0 -20 0zM316.76 4198.77 a10 10 0 1 0 20 0 a10 10 0 1 0 -20 0zM230.16 4148.77 a10 10 0 1 0 20 0 a10 10 0 1 0 -20 0zM316.76 4298.77 a10 10 0 1 0 20 0 a10 10 0 1 0 -20 0zM403.37 4348.77 a10 10 0 1 0 20 0 a10 10 0 1 0 -20 0zM403.37 4448.77 a10 10 0 1 0 20 0 a10 10 0 1 0 -20 0zM316.76 4498.77 a10 10 0 1 0 20 0 a10 10 0 1 0 -20 0zM230.16 4448.77 a10 10 0 1 0 20 0 a10 10 0 1 0 -20 0zM230.16 4348.77 a10 10 0 1 0 20 0 a10 10 0 1 0 -20 0zM316.76 4898.77 a10 10 0 1 0 20 0 a10 10 0 1 0 -20 0zM403.37 4948.77 a10 10 0 1 0 20 0 a10 10 0 1 0 -20 0zM403.37 5048.77 a10 10 0 1 0 20 0 a10 10 0 1 0 -20 0zM316.76 5098.77 a10 10 0 1 0 20 0 a10 10 0 1 0 -20 0zM230.16 5048.77 a10 10 0 1 0 20 0 a10 10 0 1 0 -20 0zM230.16 4948.77 a10 10 0 1 0 20 0 a10 10 0 1 0 -20 0zM316.76 5798.77 a10 10 0 1 0 20 0 a10 10 0 1 0 -20 0zM403.37 5848.77 a10 10 0 1 0 20 0 a10 10 0 1 0 -20 0zM403.37 5948.77 a10 10 0 1 0 20 0 a10 10 0 1 0 -20 0zM316.76 5998.77 a10 10 0 1 0 20 0 a10 10 0 1 0 -20 0zM230.16 5948.77 a10 10 0 1 0 20 0 a10 10 0 1 0 -20 0zM230.16 5848.77 a10 10 0 1 0 20 0 a10 10 0 1 0 -20 0zM316.76 6398.77 a10 10 0 1 0 20 0 a10 10 0 1 0 -20 0zM403.37 6448.77 a10 10 0 1 0 20 0 a10 10 0 1 0 -20 0zM403.37 6548.77 a10 10 0 1 0 20 0 a10 10 0 1 0 -20 0zM316.76 6598.77 a10 10 0 1 0 20 0 a10 10 0 1 0 -20 0zM230.16 6548.77 a10 10 0 1 0 20 0 a10 10 0 1 0 -20 0zM230.16 6448.77 a10 10 0 1 0 20 0 a10 10 0 1 0 -20 0zM316.76 6698.77 a10 10 0 1 0 20 0 a10 10 0 1 0 -20 0zM403.37 6748.77 a10 10 0 1 0 20 0 a10 10 0 1 0 -20 0zM403.37 6848.77 a10 10 0 1 0 20 0 a10 10 0 1 0 -20 0zM316.76 6898.77 a10 10 0 1 0 20 0 a10 10 0 1 0 -20 0zM230.16 6848.77 a10 10 0 1 0 20 0 a10 10 0 1 0 -20 0zM230.16 6748.77 a10 10 0 1 0 20 0 a10 10 0 1 0 -20 0zM316.76 6998.77 a10 10 0 1 0 20 0 a10 10 0 1 0 -20 0zM403.37 7048.77 a10 10 0 1 0 20 0 a10 10 0 1 0 -20 0zM403.37 7148.77 a10 10 0 1 0 20 0 a10 10 0 1 0 -20 0zM316.76 7198.77 a10 10 0 1 0 20 0 a10 10 0 1 0 -20 0zM316.76 7298.77 a10 10 0 1 0 20 0 a10 10 0 1 0 -20 0zM403.37 248.77 a10 10 0 1 0 20 0 a10 10 0 1 0 -20 0zM489.98 298.77 a10 10 0 1 0 20 0 a10 10 0 1 0 -20 0zM489.98 398.77 a10 10 0 1 0 20 0 a10 10 0 1 0 -20 0zM403.37 448.77 a10 10 0 1 0 20 0 a10 10 0 1 0 -20 0zM316.76 398.77 a10 10 0 1 0 20 0 a10 10 0 1 0 -20 0zM316.76 298.77 a10 10 0 1 0 20 0 a10 10 0 1 0 -20 0zM403.37 1148.77 a10 10 0 1 0 20 0 a10 10 0 1 0 -20 0zM489.98 1198.77 a10 10 0 1 0 20 0 a10 10 0 1 0 -20 0zM489.98 1298.77 a10 10 0 1 0 20 0 a10 10 0 1 0 -20 0zM403.37 1348.77 a10 10 0 1 0 20 0 a10 10 0 1 0 -20 0zM316.76 1298.77 a10 10 0 1 0 20 0 a10 10 0 1 0 -20 0zM316.76 1198.77 a10 10 0 1 0 20 0 a10 10 0 1 0 -20 0zM489.98 3098.77 a10 10 0 1 0 20 0 a10 10 0 1 0 -20 0zM576.58 3148.77 a10 10 0 1 0 20 0 a10 10 0 1 0 -20 0zM576.58 3248.77 a10 10 0 1 0 20 0 a10 10 0 1 0 -20 0zM489.98 3298.77 a10 10 0 1 0 20 0 a10 10 0 1 0 -20 0zM403.37 3248.77 a10 10 0 1 0 20 0 a10 10 0 1 0 -20 0zM403.37 3148.77 a10 10 0 1 0 20 0 a10 10 0 1 0 -20 0zM489.98 5098.77 a10 10 0 1 0 20 0 a10 10 0 1 0 -20 0zM489.98 5198.77 a10 10 0 1 0 20 0 a10 10 0 1 0 -20 0zM403.37 5248.77 a10 10 0 1 0 20 0 a10 10 0 1 0 -20 0zM316.76 5198.77 a10 10 0 1 0 20 0 a10 10 0 1 0 -20 0zM663.19 3698.77 a10 10 0 1 0 20 0 a10 10 0 1 0 -20 0zM749.79 3748.77 a10 10 0 1 0 20 0 a10 10 0 1 0 -20 0zM749.79 3848.77 a10 10 0 1 0 20 0 a10 10 0 1 0 -20 0zM663.19 3898.77 a10 10 0 1 0 20 0 a10 10 0 1 0 -20 0zM576.58 3848.77 a10 10 0 1 0 20 0 a10 10 0 1 0 -20 0zM576.58 3748.77 a10 10 0 1 0 20 0 a10 10 0 1 0 -20 0zM576.58 5648.77 a10 10 0 1 0 20 0 a10 10 0 1 0 -20 0zM663.19 5698.77 a10 10 0 1 0 20 0 a10 10 0 1 0 -20 0zM663.19 5798.77 a10 10 0 1 0 20 0 a10 10 0 1 0 -20 0zM576.58 5848.77 a10 10 0 1 0 20 0 a10 10 0 1 0 -20 0zM489.97 5798.77 a10 10 0 1 0 20 0 a10 10 0 1 0 -20 0zM489.97 5698.77 a10 10 0 1 0 20 0 a10 10 0 1 0 -20 0zM576.58 6248.77 a10 10 0 1 0 20 0 a10 10 0 1 0 -20 0zM663.19 6298.77 a10 10 0 1 0 20 0 a10 10 0 1 0 -20 0zM663.19 6398.77 a10 10 0 1 0 20 0 a10 10 0 1 0 -20 0zM576.58 6448.77 a10 10 0 1 0 20 0 a10 10 0 1 0 -20 0zM489.97 6398.77 a10 10 0 1 0 20 0 a10 10 0 1 0 -20 0zM489.97 6298.77 a10 10 0 1 0 20 0 a10 10 0 1 0 -20 0zM576.58 6848.77 a10 10 0 1 0 20 0 a10 10 0 1 0 -20 0zM663.19 6898.77 a10 10 0 1 0 20 0 a10 10 0 1 0 -20 0zM663.19 6998.77 a10 10 0 1 0 20 0 a10 10 0 1 0 -20 0zM576.58 7048.77 a10 10 0 1 0 20 0 a10 10 0 1 0 -20 0zM489.97 6998.77 a10 10 0 1 0 20 0 a10 10 0 1 0 -20 0zM489.97 6898.77 a10 10 0 1 0 20 0 a10 10 0 1 0 -20 0zM749.79 848.77 a10 10 0 1 0 20 0 a10 10 0 1 0 -20 0zM836.4 898.77 a10 10 0 1 0 20 0 a10 10 0 1 0 -20 0zM836.4 998.77 a10 10 0 1 0 20 0 a10 10 0 1 0 -20 0zM749.79 1048.77 a10 10 0 1 0 20 0 a10 10 0 1 0 -20 0zM663.19 998.77 a10 10 0 1 0 20 0 a10 10 0 1 0 -20 0zM663.19 898.77 a10 10 0 1 0 20 0 a10 10 0 1 0 -20 0zM749.79 2048.77 a10 10 0 1 0 20 0 a10 10 0 1 0 -20 0zM836.4 2098.77 a10 10 0 1 0 20 0 a10 10 0 1 0 -20 0zM836.4 2198.77 a10 10 0 1 0 20 0 a10 10 0 1 0 -20 0zM749.79 2248.77 a10 10 0 1 0 20 0 a10 10 0 1 0 -20 0zM663.19 2198.77 a10 10 0 1 0 20 0 a10 10 0 1 0 -20 0zM663.19 2098.77 a10 10 0 1 0 20 0 a10 10 0 1 0 -20 0zM836.4 5198.77 a10 10 0 1 0 20 0 a10 10 0 1 0 -20 0zM923 5248.77 a10 10 0 1 0 20 0 a10 10 0 1 0 -20 0zM923 5348.77 a10 10 0 1 0 20 0 a10 10 0 1 0 -20 0zM836.4 5398.77 a10 10 0 1 0 20 0 a10 10 0 1 0 -20 0zM749.79 5348.77 a10 10 0 1 0 20 0 a10 10 0 1 0 -20 0zM749.79 5248.77 a10 10 0 1 0 20 0 a10 10 0 1 0 -20 0zM749.79 5648.77 a10 10 0 1 0 20 0 a10 10 0 1 0 -20 0zM836.4 5698.77 a10 10 0 1 0 20 0 a10 10 0 1 0 -20 0zM836.4 5798.77 a10 10 0 1 0 20 0 a10 10 0 1 0 -20 0zM749.79 5848.77 a10 10 0 1 0 20 0 a10 10 0 1 0 -20 0zM836.4 6998.77 a10 10 0 1 0 20 0 a10 10 0 1 0 -20 0zM923 7048.77 a10 10 0 1 0 20 0 a10 10 0 1 0 -20 0zM923 7148.77 a10 10 0 1 0 20 0 a10 10 0 1 0 -20 0zM836.4 7198.77 a10 10 0 1 0 20 0 a10 10 0 1 0 -20 0zM749.79 7148.77 a10 10 0 1 0 20 0 a10 10 0 1 0 -20 0zM749.79 7048.77 a10 10 0 1 0 20 0 a10 10 0 1 0 -20 0zM1009.61 1298.77 a10 10 0 1 0 20 0 a10 10 0 1 0 -20 0zM1096.21 1348.77 a10 10 0 1 0 20 0 a10 10 0 1 0 -20 0zM1096.21 1448.77 a10 10 0 1 0 20 0 a10 10 0 1 0 -20 0zM1009.61 1498.77 a10 10 0 1 0 20 0 a10 10 0 1 0 -20 0zM923 1448.77 a10 10 0 1 0 20 0 a10 10 0 1 0 -20 0zM923 1348.77 a10 10 0 1 0 20 0 a10 10 0 1 0 -20 0zM1009.61 1898.77 a10 10 0 1 0 20 0 a10 10 0 1 0 -20 0zM1096.21 1948.77 a10 10 0 1 0 20 0 a10 10 0 1 0 -20 0zM1096.21 2048.77 a10 10 0 1 0 20 0 a10 10 0 1 0 -20 0zM1009.61 2098.77 a10 10 0 1 0 20 0 a10 10 0 1 0 -20 0zM923 2048.77 a10 10 0 1 0 20 0 a10 10 0 1 0 -20 0zM923 1948.77 a10 10 0 1 0 20 0 a10 10 0 1 0 -20 0zM1009.61 2798.77 a10 10 0 1 0 20 0 a10 10 0 1 0 -20 0zM1096.21 2848.77 a10 10 0 1 0 20 0 a10 10 0 1 0 -20 0zM1096.21 2948.77 a10 10 0 1 0 20 0 a10 10 0 1 0 -20 0zM1009.61 2998.77 a10 10 0 1 0 20 0 a10 10 0 1 0 -20 0zM923 2948.77 a10 10 0 1 0 20 0 a10 10 0 1 0 -20 0zM923 2848.77 a10 10 0 1 0 20 0 a10 10 0 1 0 -20 0zM923 3248.77 a10 10 0 1 0 20 0 a10 10 0 1 0 -20 0zM1009.61 3298.77 a10 10 0 1 0 20 0 a10 10 0 1 0 -20 0zM1009.61 3398.77 a10 10 0 1 0 20 0 a10 10 0 1 0 -20 0zM923 3448.77 a10 10 0 1 0 20 0 a10 10 0 1 0 -20 0zM836.4 3398.77 a10 10 0 1 0 20 0 a10 10 0 1 0 -20 0zM836.4 3298.77 a10 10 0 1 0 20 0 a10 10 0 1 0 -20 0zM1009.61 3998.77 a10 10 0 1 0 20 0 a10 10 0 1 0 -20 0zM1096.21 4048.77 a10 10 0 1 0 20 0 a10 10 0 1 0 -20 0zM1096.21 4148.77 a10 10 0 1 0 20 0 a10 10 0 1 0 -20 0zM1009.61 4198.77 a10 10 0 1 0 20 0 a10 10 0 1 0 -20 0zM923 4148.77 a10 10 0 1 0 20 0 a10 10 0 1 0 -20 0zM923 4048.77 a10 10 0 1 0 20 0 a10 10 0 1 0 -20 0zM1009.61 4898.77 a10 10 0 1 0 20 0 a10 10 0 1 0 -20 0zM1096.21 4948.77 a10 10 0 1 0 20 0 a10 10 0 1 0 -20 0zM1096.21 5048.77 a10 10 0 1 0 20 0 a10 10 0 1 0 -20 0zM1009.61 5098.77 a10 10 0 1 0 20 0 a10 10 0 1 0 -20 0zM923 5048.77 a10 10 0 1 0 20 0 a10 10 0 1 0 -20 0zM923 4948.77 a10 10 0 1 0 20 0 a10 10 0 1 0 -20 0zM1009.61 5198.77 a10 10 0 1 0 20 0 a10 10 0 1 0 -20 0zM836.4 5098.77 a10 10 0 1 0 20 0 a10 10 0 1 0 -20 0zM1009.61 6698.77 a10 10 0 1 0 20 0 a10 10 0 1 0 -20 0zM1096.21 6748.77 a10 10 0 1 0 20 0 a10 10 0 1 0 -20 0zM1096.21 6848.77 a10 10 0 1 0 20 0 a10 10 0 1 0 -20 0zM1009.61 6898.77 a10 10 0 1 0 20 0 a10 10 0 1 0 -20 0zM923 6848.77 a10 10 0 1 0 20 0 a10 10 0 1 0 -20 0zM923 6748.77 a10 10 0 1 0 20 0 a10 10 0 1 0 -20 0zM1182.82 3098.77 a10 10 0 1 0 20 0 a10 10 0 1 0 -20 0zM1269.42 3148.77 a10 10 0 1 0 20 0 a10 10 0 1 0 -20 0zM1269.42 3248.77 a10 10 0 1 0 20 0 a10 10 0 1 0 -20 0zM1182.82 3298.77 a10 10 0 1 0 20 0 a10 10 0 1 0 -20 0zM1096.21 3248.77 a10 10 0 1 0 20 0 a10 10 0 1 0 -20 0zM1096.21 3148.77 a10 10 0 1 0 20 0 a10 10 0 1 0 -20 0zM1096.21 4748.77 a10 10 0 1 0 20 0 a10 10 0 1 0 -20 0zM1182.82 4798.77 a10 10 0 1 0 20 0 a10 10 0 1 0 -20 0zM1182.82 4898.77 a10 10 0 1 0 20 0 a10 10 0 1 0 -20 0zM1009.61 4798.77 a10 10 0 1 0 20 0 a10 10 0 1 0 -20 0zM1182.82 6398.77 a10 10 0 1 0 20 0 a10 10 0 1 0 -20 0zM1269.42 6448.77 a10 10 0 1 0 20 0 a10 10 0 1 0 -20 0zM1269.42 6548.77 a10 10 0 1 0 20 0 a10 10 0 1 0 -20 0zM1182.82 6598.77 a10 10 0 1 0 20 0 a10 10 0 1 0 -20 0zM1096.21 6548.77 a10 10 0 1 0 20 0 a10 10 0 1 0 -20 0zM1096.21 6448.77 a10 10 0 1 0 20 0 a10 10 0 1 0 -20 0zM1182.82 6698.77 a10 10 0 1 0 20 0 a10 10 0 1 0 -20 0zM1269.42 6748.77 a10 10 0 1 0 20 0 a10 10 0 1 0 -20 0zM1269.42 6848.77 a10 10 0 1 0 20 0 a10 10 0 1 0 -20 0zM1182.82 6898.77 a10 10 0 1 0 20 0 a10 10 0 1 0 -20 0zM1269.42 5348.77 a10 10 0 1 0 20 0 a10 10 0 1 0 -20 0zM1356.03 5398.77 a10 10 0 1 0 20 0 a10 10 0 1 0 -20 0zM1356.03 5498.77 a10 10 0 1 0 20 0 a10 10 0 1 0 -20 0zM1269.42 5548.77 a10 10 0 1 0 20 0 a10 10 0 1 0 -20 0zM1182.82 5498.77 a10 10 0 1 0 20 0 a10 10 0 1 0 -20 0zM1182.82 5398.77 a10 10 0 1 0 20 0 a10 10 0 1 0 -20 0zM1356.03 6098.77 a10 10 0 1 0 20 0 a10 10 0 1 0 -20 0zM1442.63 6148.77 a10 10 0 1 0 20 0 a10 10 0 1 0 -20 0zM1442.63 6248.77 a10 10 0 1 0 20 0 a10 10 0 1 0 -20 0zM1356.03 6298.77 a10 10 0 1 0 20 0 a10 10 0 1 0 -20 0zM1269.42 6248.77 a10 10 0 1 0 20 0 a10 10 0 1 0 -20 0zM1269.42 6148.77 a10 10 0 1 0 20 0 a10 10 0 1 0 -20 0zM1356.03 6398.77 a10 10 0 1 0 20 0 a10 10 0 1 0 -20 0zM1182.82 6298.77 a10 10 0 1 0 20 0 a10 10 0 1 0 -20 0zM1442.63 248.77 a10 10 0 1 0 20 0 a10 10 0 1 0 -20 0zM1529.24 298.77 a10 10 0 1 0 20 0 a10 10 0 1 0 -20 0zM1529.24 398.77 a10 10 0 1 0 20 0 a10 10 0 1 0 -20 0zM1442.63 448.77 a10 10 0 1 0 20 0 a10 10 0 1 0 -20 0zM1356.03 398.77 a10 10 0 1 0 20 0 a10 10 0 1 0 -20 0zM1356.03 298.77 a10 10 0 1 0 20 0 a10 10 0 1 0 -20 0zM1442.63 848.77 a10 10 0 1 0 20 0 a10 10 0 1 0 -20 0zM1529.24 898.77 a10 10 0 1 0 20 0 a10 10 0 1 0 -20 0zM1529.24 998.77 a10 10 0 1 0 20 0 a10 10 0 1 0 -20 0zM1442.63 1048.77 a10 10 0 1 0 20 0 a10 10 0 1 0 -20 0zM1356.03 998.77 a10 10 0 1 0 20 0 a10 10 0 1 0 -20 0zM1356.03 898.77 a10 10 0 1 0 20 0 a10 10 0 1 0 -20 0zM1442.63 3248.77 a10 10 0 1 0 20 0 a10 10 0 1 0 -20 0zM1529.24 3298.77 a10 10 0 1 0 20 0 a10 10 0 1 0 -20 0zM1529.24 3398.77 a10 10 0 1 0 20 0 a10 10 0 1 0 -20 0zM1442.63 3448.77 a10 10 0 1 0 20 0 a10 10 0 1 0 -20 0zM1356.03 3398.77 a10 10 0 1 0 20 0 a10 10 0 1 0 -20 0zM1356.03 3298.77 a10 10 0 1 0 20 0 a10 10 0 1 0 -20 0zM1442.63 6848.77 a10 10 0 1 0 20 0 a10 10 0 1 0 -20 0zM1529.24 6898.77 a10 10 0 1 0 20 0 a10 10 0 1 0 -20 0zM1529.24 6998.77 a10 10 0 1 0 20 0 a10 10 0 1 0 -20 0zM1442.63 7048.77 a10 10 0 1 0 20 0 a10 10 0 1 0 -20 0zM1356.03 6998.77 a10 10 0 1 0 20 0 a10 10 0 1 0 -20 0zM1356.03 6898.77 a10 10 0 1 0 20 0 a10 10 0 1 0 -20 0zM1442.63 7448.77 a10 10 0 1 0 20 0 a10 10 0 1 0 -20 0zM1529.24 7498.77 a10 10 0 1 0 20 0 a10 10 0 1 0 -20 0zM1529.24 7598.77 a10 10 0 1 0 20 0 a10 10 0 1 0 -20 0zM1442.63 7648.77 a10 10 0 1 0 20 0 a10 10 0 1 0 -20 0zM1356.03 7598.77 a10 10 0 1 0 20 0 a10 10 0 1 0 -20 0zM1356.03 7498.77 a10 10 0 1 0 20 0 a10 10 0 1 0 -20 0z" fill="rgba(64, 104, 130, 1)"></path><path d="M49.16 142.07L92.46 167.07L92.46 217.07L49.16 242.07L5.86 217.07L5.86 167.07zM92.46 217.07L135.76 242.07L135.76 292.07L92.46 317.07L49.16 292.07L49.16 242.07zM49.16 742.07L92.46 767.07L92.46 817.07L49.16 842.07L5.86 817.07L5.86 767.07zM92.46 967.07L135.76 992.07L135.76 1042.07L92.46 1067.07L49.16 1042.07L49.16 992.07zM49.16 1192.07L92.46 1217.07L92.46 1267.07L49.16 1292.07L5.86 1267.07L5.86 1217.07zM92.46 1867.07L135.76 1892.07L135.76 1942.07L92.46 1967.07L49.16 1942.07L49.16 1892.07zM49.16 2542.07L92.46 2567.07L92.46 2617.07L49.16 2642.07L5.86 2617.07L5.86 2567.07zM92.46 2617.07L135.76 2642.07L135.76 2692.07L92.46 2717.07L49.16 2692.07L49.16 2642.07zM92.46 3067.07L135.76 3092.07L135.76 3142.07L92.46 3167.07L49.16 3142.07L49.16 3092.07zM49.16 3292.07L92.46 3317.07L92.46 3367.07L49.16 3392.07L5.86 3367.07L5.86 3317.07zM92.46 3367.07L135.76 3392.07L135.76 3442.07L92.46 3467.07L49.16 3442.07L49.16 3392.07zM49.16 3442.07L92.46 3467.07L92.46 3517.07L49.16 3542.07L5.86 3517.07L5.86 3467.07zM92.46 3667.07L135.76 3692.07L135.76 3742.07L92.46 3767.07L49.16 3742.07L49.16 3692.07zM49.16 3742.07L92.46 3767.07L92.46 3817.07L49.16 3842.07L5.86 3817.07L5.86 3767.07zM49.16 3892.07L92.46 3917.07L92.46 3967.07L49.16 3992.07L5.86 3967.07L5.86 3917.07zM49.16 4042.07L92.46 4067.07L92.46 4117.07L49.16 4142.07L5.86 4117.07L5.86 4067.07zM49.16 4492.07L92.46 4517.07L92.46 4567.07L49.16 4592.07L5.86 4567.07L5.86 4517.07zM49.16 4642.07L92.46 4667.07L92.46 4717.07L49.16 4742.07L5.86 4717.07L5.86 4667.07zM92.46 4717.07L135.76 4742.07L135.76 4792.07L92.46 4817.07L49.16 4792.07L49.16 4742.07zM49.16 4792.07L92.46 4817.07L92.46 4867.07L49.16 4892.07L5.86 4867.07L5.86 4817.07zM92.46 4867.07L135.76 4892.07L135.76 4942.07L92.46 4967.07L49.16 4942.07L49.16 4892.07zM92.46 5167.07L135.76 5192.07L135.76 5242.07L92.46 5267.07L49.16 5242.07L49.16 5192.07zM49.16 5692.07L92.46 5717.07L92.46 5767.07L49.16 5792.07L5.86 5767.07L5.86 5717.07zM49.16 5842.07L92.46 5867.07L92.46 5917.07L49.16 5942.07L5.86 5917.07L5.86 5867.07zM92.46 6667.07L135.76 6692.07L135.76 6742.07L92.46 6767.07L49.16 6742.07L49.16 6692.07zM49.16 6742.07L92.46 6767.07L92.46 6817.07L49.16 6842.07L5.86 6817.07L5.86 6767.07zM49.16 7042.07L92.46 7067.07L92.46 7117.07L49.16 7142.07L5.86 7117.07L5.86 7067.07zM49.16 7192.07L92.46 7217.07L92.46 7267.07L49.16 7292.07L5.86 7267.07L5.86 7217.07zM49.16 7492.07L92.46 7517.07L92.46 7567.07L49.16 7592.07L5.86 7567.07L5.86 7517.07zM135.76 142.07L179.07 167.07L179.07 217.07L135.76 242.07L92.46 217.07L92.46 167.07zM179.07 367.07L222.37 392.07L222.37 442.07L179.07 467.07L135.76 442.07L135.76 392.07zM135.76 742.07L179.07 767.07L179.07 817.07L135.76 842.07L92.46 817.07L92.46 767.07zM179.07 817.07L222.37 842.07L222.37 892.07L179.07 917.07L135.76 892.07L135.76 842.07zM135.76 1192.07L179.07 1217.07L179.07 1267.07L135.76 1292.07L92.46 1267.07L92.46 1217.07zM135.76 1342.07L179.07 1367.07L179.07 1417.07L135.76 1442.07L92.46 1417.07L92.46 1367.07zM135.76 1792.07L179.07 1817.07L179.07 1867.07L135.76 1892.07L92.46 1867.07L92.46 1817.07zM179.07 1867.07L222.37 1892.07L222.37 1942.07L179.07 1967.07L135.76 1942.07L135.76 1892.07zM135.76 1942.07L179.07 1967.07L179.07 2017.07L135.76 2042.07L92.46 2017.07L92.46 1967.07zM179.07 2317.07L222.37 2342.07L222.37 2392.07L179.07 2417.07L135.76 2392.07L135.76 2342.07zM135.76 2542.07L179.07 2567.07L179.07 2617.07L135.76 2642.07L92.46 2617.07L92.46 2567.07zM135.76 2842.07L179.07 2867.07L179.07 2917.07L135.76 2942.07L92.46 2917.07L92.46 2867.07zM179.07 3067.07L222.37 3092.07L222.37 3142.07L179.07 3167.07L135.76 3142.07L135.76 3092.07zM179.07 3667.07L222.37 3692.07L222.37 3742.07L179.07 3767.07L135.76 3742.07L135.76 3692.07zM179.07 3817.07L222.37 3842.07L222.37 3892.07L179.07 3917.07L135.76 3892.07L135.76 3842.07zM179.07 3967.07L222.37 3992.07L222.37 4042.07L179.07 4067.07L135.76 4042.07L135.76 3992.07zM135.76 4042.07L179.07 4067.07L179.07 4117.07L135.76 4142.07L92.46 4117.07L92.46 4067.07zM179.07 4117.07L222.37 4142.07L222.37 4192.07L179.07 4217.07L135.76 4192.07L135.76 4142.07zM179.07 4567.07L222.37 4592.07L222.37 4642.07L179.07 4667.07L135.76 4642.07L135.76 4592.07zM135.76 5392.07L179.07 5417.07L179.07 5467.07L135.76 5492.07L92.46 5467.07L92.46 5417.07zM179.07 5467.07L222.37 5492.07L222.37 5542.07L179.07 5567.07L135.76 5542.07L135.76 5492.07zM179.07 5617.07L222.37 5642.07L222.37 5692.07L179.07 5717.07L135.76 5692.07L135.76 5642.07zM179.07 5767.07L222.37 5792.07L222.37 5842.07L179.07 5867.07L135.76 5842.07L135.76 5792.07zM135.76 5842.07L179.07 5867.07L179.07 5917.07L135.76 5942.07L92.46 5917.07L92.46 5867.07zM135.76 5992.07L179.07 6017.07L179.07 6067.07L135.76 6092.07L92.46 6067.07L92.46 6017.07zM179.07 6067.07L222.37 6092.07L222.37 6142.07L179.07 6167.07L135.76 6142.07L135.76 6092.07zM135.76 6142.07L179.07 6167.07L179.07 6217.07L135.76 6242.07L92.46 6217.07L92.46 6167.07zM135.76 6742.07L179.07 6767.07L179.07 6817.07L135.76 6842.07L92.46 6817.07L92.46 6767.07zM179.07 6817.07L222.37 6842.07L222.37 6892.07L179.07 6917.07L135.76 6892.07L135.76 6842.07zM179.07 7567.07L222.37 7592.07L222.37 7642.07L179.07 7667.07L135.76 7642.07L135.76 7592.07zM265.67 817.07L308.98 842.07L308.98 892.07L265.67 917.07L222.37 892.07L222.37 842.07zM265.67 1417.07L308.98 1442.07L308.98 1492.07L265.67 1517.07L222.37 1492.07L222.37 1442.07zM265.67 1567.07L308.98 1592.07L308.98 1642.07L265.67 1667.07L222.37 1642.07L222.37 1592.07zM222.37 2242.07L265.67 2267.07L265.67 2317.07L222.37 2342.07L179.07 2317.07L179.07 2267.07zM265.67 2917.07L308.98 2942.07L308.98 2992.07L265.67 3017.07L222.37 2992.07L222.37 2942.07zM265.67 3067.07L308.98 3092.07L308.98 3142.07L265.67 3167.07L222.37 3142.07L222.37 3092.07zM265.67 3667.07L308.98 3692.07L308.98 3742.07L265.67 3767.07L222.37 3742.07L222.37 3692.07zM222.37 4192.07L265.67 4217.07L265.67 4267.07L222.37 4292.07L179.07 4267.07L179.07 4217.07zM265.67 4567.07L308.98 4592.07L308.98 4642.07L265.67 4667.07L222.37 4642.07L222.37 4592.07zM265.67 5017.07L308.98 5042.07L308.98 5092.07L265.67 5117.07L222.37 5092.07L222.37 5042.07zM265.67 5617.07L308.98 5642.07L308.98 5692.07L265.67 5717.07L222.37 5692.07L222.37 5642.07zM222.37 5842.07L265.67 5867.07L265.67 5917.07L222.37 5942.07L179.07 5917.07L179.07 5867.07zM222.37 6442.07L265.67 6467.07L265.67 6517.07L222.37 6542.07L179.07 6517.07L179.07 6467.07zM265.67 6517.07L308.98 6542.07L308.98 6592.07L265.67 6617.07L222.37 6592.07L222.37 6542.07zM265.67 7267.07L308.98 7292.07L308.98 7342.07L265.67 7367.07L222.37 7342.07L222.37 7292.07zM308.98 292.07L352.28 317.07L352.28 367.07L308.98 392.07L265.67 367.07L265.67 317.07zM352.28 517.07L395.58 542.07L395.58 592.07L352.28 617.07L308.98 592.07L308.98 542.07zM308.98 742.07L352.28 767.07L352.28 817.07L308.98 842.07L265.67 817.07L265.67 767.07zM352.28 1117.07L395.58 1142.07L395.58 1192.07L352.28 1217.07L308.98 1192.07L308.98 1142.07zM352.28 1267.07L395.58 1292.07L395.58 1342.07L352.28 1367.07L308.98 1342.07L308.98 1292.07zM308.98 1342.07L352.28 1367.07L352.28 1417.07L308.98 1442.07L265.67 1417.07L265.67 1367.07zM352.28 1717.07L395.58 1742.07L395.58 1792.07L352.28 1817.07L308.98 1792.07L308.98 1742.07zM352.28 2167.07L395.58 2192.07L395.58 2242.07L352.28 2267.07L308.98 2242.07L308.98 2192.07zM308.98 2692.07L352.28 2717.07L352.28 2767.07L308.98 2792.07L265.67 2767.07L265.67 2717.07zM352.28 2767.07L395.58 2792.07L395.58 2842.07L352.28 2867.07L308.98 2842.07L308.98 2792.07zM308.98 2842.07L352.28 2867.07L352.28 2917.07L308.98 2942.07L265.67 2917.07L265.67 2867.07zM352.28 3067.07L395.58 3092.07L395.58 3142.07L352.28 3167.07L308.98 3142.07L308.98 3092.07zM308.98 3592.07L352.28 3617.07L352.28 3667.07L308.98 3692.07L265.67 3667.07L265.67 3617.07zM352.28 4417.07L395.58 4442.07L395.58 4492.07L352.28 4517.07L308.98 4492.07L308.98 4442.07zM308.98 4942.07L352.28 4967.07L352.28 5017.07L308.98 5042.07L265.67 5017.07L265.67 4967.07zM308.98 5092.07L352.28 5117.07L352.28 5167.07L308.98 5192.07L265.67 5167.07L265.67 5117.07zM352.28 5167.07L395.58 5192.07L395.58 5242.07L352.28 5267.07L308.98 5242.07L308.98 5192.07zM352.28 5317.07L395.58 5342.07L395.58 5392.07L352.28 5417.07L308.98 5392.07L308.98 5342.07zM308.98 5692.07L352.28 5717.07L352.28 5767.07L308.98 5792.07L265.67 5767.07L265.67 5717.07zM352.28 6967.07L395.58 6992.07L395.58 7042.07L352.28 7067.07L308.98 7042.07L308.98 6992.07zM308.98 7042.07L352.28 7067.07L352.28 7117.07L308.98 7142.07L265.67 7117.07L265.67 7067.07zM352.28 7117.07L395.58 7142.07L395.58 7192.07L352.28 7217.07L308.98 7192.07L308.98 7142.07zM438.88 67.07L482.19 92.07L482.19 142.07L438.88 167.07L395.58 142.07L395.58 92.07zM395.58 1042.07L438.88 1067.07L438.88 1117.07L395.58 1142.07L352.28 1117.07L352.28 1067.07zM395.58 1492.07L438.88 1517.07L438.88 1567.07L395.58 1592.07L352.28 1567.07L352.28 1517.07zM438.88 1567.07L482.19 1592.07L482.19 1642.07L438.88 1667.07L395.58 1642.07L395.58 1592.07zM438.88 2017.07L482.19 2042.07L482.19 2092.07L438.88 2117.07L395.58 2092.07L395.58 2042.07zM438.88 2167.07L482.19 2192.07L482.19 2242.07L438.88 2267.07L395.58 2242.07L395.58 2192.07zM395.58 2242.07L438.88 2267.07L438.88 2317.07L395.58 2342.07L352.28 2317.07L352.28 2267.07zM395.58 2542.07L438.88 2567.07L438.88 2617.07L395.58 2642.07L352.28 2617.07L352.28 2567.07zM438.88 2767.07L482.19 2792.07L482.19 2842.07L438.88 2867.07L395.58 2842.07L395.58 2792.07zM395.58 2842.07L438.88 2867.07L438.88 2917.07L395.58 2942.07L352.28 2917.07L352.28 2867.07zM395.58 2992.07L438.88 3017.07L438.88 3067.07L395.58 3092.07L352.28 3067.07L352.28 3017.07zM395.58 3142.07L438.88 3167.07L438.88 3217.07L395.58 3242.07L352.28 3217.07L352.28 3167.07zM438.88 3517.07L482.19 3542.07L482.19 3592.07L438.88 3617.07L395.58 3592.07L395.58 3542.07zM438.88 3667.07L482.19 3692.07L482.19 3742.07L438.88 3767.07L395.58 3742.07L395.58 3692.07zM438.88 3817.07L482.19 3842.07L482.19 3892.07L438.88 3917.07L395.58 3892.07L395.58 3842.07zM395.58 4192.07L438.88 4217.07L438.88 4267.07L395.58 4292.07L352.28 4267.07L352.28 4217.07zM438.88 4567.07L482.19 4592.07L482.19 4642.07L438.88 4667.07L395.58 4642.07L395.58 4592.07zM395.58 4642.07L438.88 4667.07L438.88 4717.07L395.58 4742.07L352.28 4717.07L352.28 4667.07zM395.58 4942.07L438.88 4967.07L438.88 5017.07L395.58 5042.07L352.28 5017.07L352.28 4967.07zM438.88 5017.07L482.19 5042.07L482.19 5092.07L438.88 5117.07L395.58 5092.07L395.58 5042.07zM438.88 5167.07L482.19 5192.07L482.19 5242.07L438.88 5267.07L395.58 5242.07L395.58 5192.07zM395.58 5392.07L438.88 5417.07L438.88 5467.07L395.58 5492.07L352.28 5467.07L352.28 5417.07zM438.88 5467.07L482.19 5492.07L482.19 5542.07L438.88 5567.07L395.58 5542.07L395.58 5492.07zM438.88 5767.07L482.19 5792.07L482.19 5842.07L438.88 5867.07L395.58 5842.07L395.58 5792.07zM438.88 6217.07L482.19 6242.07L482.19 6292.07L438.88 6317.07L395.58 6292.07L395.58 6242.07zM395.58 6292.07L438.88 6317.07L438.88 6367.07L395.58 6392.07L352.28 6367.07L352.28 6317.07zM395.58 6592.07L438.88 6617.07L438.88 6667.07L395.58 6692.07L352.28 6667.07L352.28 6617.07zM438.88 6967.07L482.19 6992.07L482.19 7042.07L438.88 7067.07L395.58 7042.07L395.58 6992.07zM438.88 7117.07L482.19 7142.07L482.19 7192.07L438.88 7217.07L395.58 7192.07L395.58 7142.07zM438.88 7267.07L482.19 7292.07L482.19 7342.07L438.88 7367.07L395.58 7342.07L395.58 7292.07zM438.88 7417.07L482.19 7442.07L482.19 7492.07L438.88 7517.07L395.58 7492.07L395.58 7442.07zM482.19 -7.93L525.49 17.07L525.49 67.07L482.19 92.07L438.88 67.07L438.88 17.07zM482.19 592.07L525.49 617.07L525.49 667.07L482.19 692.07L438.88 667.07L438.88 617.07zM525.49 667.07L568.79 692.07L568.79 742.07L525.49 767.07L482.19 742.07L482.19 692.07zM525.49 817.07L568.79 842.07L568.79 892.07L525.49 917.07L482.19 892.07L482.19 842.07zM525.49 1117.07L568.79 1142.07L568.79 1192.07L525.49 1217.07L482.19 1192.07L482.19 1142.07zM525.49 1267.07L568.79 1292.07L568.79 1342.07L525.49 1367.07L482.19 1342.07L482.19 1292.07zM525.49 1567.07L568.79 1592.07L568.79 1642.07L525.49 1667.07L482.19 1642.07L482.19 1592.07zM482.19 1642.07L525.49 1667.07L525.49 1717.07L482.19 1742.07L438.88 1717.07L438.88 1667.07zM525.49 1717.07L568.79 1742.07L568.79 1792.07L525.49 1817.07L482.19 1792.07L482.19 1742.07zM525.49 1867.07L568.79 1892.07L568.79 1942.07L525.49 1967.07L482.19 1942.07L482.19 1892.07zM525.49 2017.07L568.79 2042.07L568.79 2092.07L525.49 2117.07L482.19 2092.07L482.19 2042.07zM525.49 2317.07L568.79 2342.07L568.79 2392.07L525.49 2417.07L482.19 2392.07L482.19 2342.07zM525.49 2617.07L568.79 2642.07L568.79 2692.07L525.49 2717.07L482.19 2692.07L482.19 2642.07zM482.19 2692.07L525.49 2717.07L525.49 2767.07L482.19 2792.07L438.88 2767.07L438.88 2717.07zM482.19 3142.07L525.49 3167.07L525.49 3217.07L482.19 3242.07L438.88 3217.07L438.88 3167.07zM525.49 3667.07L568.79 3692.07L568.79 3742.07L525.49 3767.07L482.19 3742.07L482.19 3692.07zM525.49 3817.07L568.79 3842.07L568.79 3892.07L525.49 3917.07L482.19 3892.07L482.19 3842.07zM482.19 4342.07L525.49 4367.07L525.49 4417.07L482.19 4442.07L438.88 4417.07L438.88 4367.07zM525.49 4417.07L568.79 4442.07L568.79 4492.07L525.49 4517.07L482.19 4492.07L482.19 4442.07zM482.19 4792.07L525.49 4817.07L525.49 4867.07L482.19 4892.07L438.88 4867.07L438.88 4817.07zM525.49 5167.07L568.79 5192.07L568.79 5242.07L525.49 5267.07L482.19 5242.07L482.19 5192.07zM525.49 5317.07L568.79 5342.07L568.79 5392.07L525.49 5417.07L482.19 5392.07L482.19 5342.07zM482.19 5392.07L525.49 5417.07L525.49 5467.07L482.19 5492.07L438.88 5467.07L438.88 5417.07zM482.19 5842.07L525.49 5867.07L525.49 5917.07L482.19 5942.07L438.88 5917.07L438.88 5867.07zM525.49 6067.07L568.79 6092.07L568.79 6142.07L525.49 6167.07L482.19 6142.07L482.19 6092.07zM525.49 6367.07L568.79 6392.07L568.79 6442.07L525.49 6467.07L482.19 6442.07L482.19 6392.07zM482.19 6592.07L525.49 6617.07L525.49 6667.07L482.19 6692.07L438.88 6667.07L438.88 6617.07zM525.49 6967.07L568.79 6992.07L568.79 7042.07L525.49 7067.07L482.19 7042.07L482.19 6992.07zM482.19 7042.07L525.49 7067.07L525.49 7117.07L482.19 7142.07L438.88 7117.07L438.88 7067.07zM482.19 7192.07L525.49 7217.07L525.49 7267.07L482.19 7292.07L438.88 7267.07L438.88 7217.07zM525.49 7267.07L568.79 7292.07L568.79 7342.07L525.49 7367.07L482.19 7342.07L482.19 7292.07zM525.49 7567.07L568.79 7592.07L568.79 7642.07L525.49 7667.07L482.19 7642.07L482.19 7592.07zM612.09 517.07L655.39 542.07L655.39 592.07L612.09 617.07L568.79 592.07L568.79 542.07zM612.09 817.07L655.39 842.07L655.39 892.07L612.09 917.07L568.79 892.07L568.79 842.07zM612.09 1117.07L655.39 1142.07L655.39 1192.07L612.09 1217.07L568.79 1192.07L568.79 1142.07zM568.79 1192.07L612.09 1217.07L612.09 1267.07L568.79 1292.07L525.49 1267.07L525.49 1217.07zM612.09 1267.07L655.39 1292.07L655.39 1342.07L612.09 1367.07L568.79 1342.07L568.79 1292.07zM612.09 1717.07L655.39 1742.07L655.39 1792.07L612.09 1817.07L568.79 1792.07L568.79 1742.07zM568.79 1792.07L612.09 1817.07L612.09 1867.07L568.79 1892.07L525.49 1867.07L525.49 1817.07zM612.09 2917.07L655.39 2942.07L655.39 2992.07L612.09 3017.07L568.79 2992.07L568.79 2942.07zM568.79 2992.07L612.09 3017.07L612.09 3067.07L568.79 3092.07L525.49 3067.07L525.49 3017.07zM612.09 3367.07L655.39 3392.07L655.39 3442.07L612.09 3467.07L568.79 3442.07L568.79 3392.07zM568.79 3442.07L612.09 3467.07L612.09 3517.07L568.79 3542.07L525.49 3517.07L525.49 3467.07zM612.09 3667.07L655.39 3692.07L655.39 3742.07L612.09 3767.07L568.79 3742.07L568.79 3692.07zM568.79 3892.07L612.09 3917.07L612.09 3967.07L568.79 3992.07L525.49 3967.07L525.49 3917.07zM612.09 3967.07L655.39 3992.07L655.39 4042.07L612.09 4067.07L568.79 4042.07L568.79 3992.07zM612.09 4117.07L655.39 4142.07L655.39 4192.07L612.09 4217.07L568.79 4192.07L568.79 4142.07zM612.09 4267.07L655.39 4292.07L655.39 4342.07L612.09 4367.07L568.79 4342.07L568.79 4292.07zM568.79 4792.07L612.09 4817.07L612.09 4867.07L568.79 4892.07L525.49 4867.07L525.49 4817.07zM568.79 4942.07L612.09 4967.07L612.09 5017.07L568.79 5042.07L525.49 5017.07L525.49 4967.07zM568.79 5092.07L612.09 5117.07L612.09 5167.07L568.79 5192.07L525.49 5167.07L525.49 5117.07zM568.79 5392.07L612.09 5417.07L612.09 5467.07L568.79 5492.07L525.49 5467.07L525.49 5417.07zM612.09 5467.07L655.39 5492.07L655.39 5542.07L612.09 5567.07L568.79 5542.07L568.79 5492.07zM612.09 5617.07L655.39 5642.07L655.39 5692.07L612.09 5717.07L568.79 5692.07L568.79 5642.07zM612.09 5767.07L655.39 5792.07L655.39 5842.07L612.09 5867.07L568.79 5842.07L568.79 5792.07zM568.79 6742.07L612.09 6767.07L612.09 6817.07L568.79 6842.07L525.49 6817.07L525.49 6767.07zM568.79 6892.07L612.09 6917.07L612.09 6967.07L568.79 6992.07L525.49 6967.07L525.49 6917.07zM612.09 7117.07L655.39 7142.07L655.39 7192.07L612.09 7217.07L568.79 7192.07L568.79 7142.07zM568.79 7342.07L612.09 7367.07L612.09 7417.07L568.79 7442.07L525.49 7417.07L525.49 7367.07zM568.79 7492.07L612.09 7517.07L612.09 7567.07L568.79 7592.07L525.49 7567.07L525.49 7517.07zM698.7 517.07L742 542.07L742 592.07L698.7 617.07L655.39 592.07L655.39 542.07zM655.39 592.07L698.7 617.07L698.7 667.07L655.39 692.07L612.09 667.07L612.09 617.07zM655.39 1042.07L698.7 1067.07L698.7 1117.07L655.39 1142.07L612.09 1117.07L612.09 1067.07zM698.7 1117.07L742 1142.07L742 1192.07L698.7 1217.07L655.39 1192.07L655.39 1142.07zM655.39 1642.07L698.7 1667.07L698.7 1717.07L655.39 1742.07L612.09 1717.07L612.09 1667.07zM698.7 1867.07L742 1892.07L742 1942.07L698.7 1967.07L655.39 1942.07L655.39 1892.07zM698.7 2167.07L742 2192.07L742 2242.07L698.7 2267.07L655.39 2242.07L655.39 2192.07zM655.39 2242.07L698.7 2267.07L698.7 2317.07L655.39 2342.07L612.09 2317.07L612.09 2267.07zM698.7 2767.07L742 2792.07L742 2842.07L698.7 2867.07L655.39 2842.07L655.39 2792.07zM698.7 2917.07L742 2942.07L742 2992.07L698.7 3017.07L655.39 2992.07L655.39 2942.07zM655.39 3292.07L698.7 3317.07L698.7 3367.07L655.39 3392.07L612.09 3367.07L612.09 3317.07zM698.7 3817.07L742 3842.07L742 3892.07L698.7 3917.07L655.39 3892.07L655.39 3842.07zM698.7 3967.07L742 3992.07L742 4042.07L698.7 4067.07L655.39 4042.07L655.39 3992.07zM655.39 4192.07L698.7 4217.07L698.7 4267.07L655.39 4292.07L612.09 4267.07L612.09 4217.07zM655.39 4492.07L698.7 4517.07L698.7 4567.07L655.39 4592.07L612.09 4567.07L612.09 4517.07zM698.7 4717.07L742 4742.07L742 4792.07L698.7 4817.07L655.39 4792.07L655.39 4742.07zM655.39 5092.07L698.7 5117.07L698.7 5167.07L655.39 5192.07L612.09 5167.07L612.09 5117.07zM655.39 5242.07L698.7 5267.07L698.7 5317.07L655.39 5342.07L612.09 5317.07L612.09 5267.07zM655.39 5392.07L698.7 5417.07L698.7 5467.07L655.39 5492.07L612.09 5467.07L612.09 5417.07zM698.7 5617.07L742 5642.07L742 5692.07L698.7 5717.07L655.39 5692.07L655.39 5642.07zM655.39 5842.07L698.7 5867.07L698.7 5917.07L655.39 5942.07L612.09 5917.07L612.09 5867.07zM655.39 6592.07L698.7 6617.07L698.7 6667.07L655.39 6692.07L612.09 6667.07L612.09 6617.07zM698.7 6667.07L742 6692.07L742 6742.07L698.7 6767.07L655.39 6742.07L655.39 6692.07zM698.7 6967.07L742 6992.07L742 7042.07L698.7 7067.07L655.39 7042.07L655.39 6992.07zM655.39 7192.07L698.7 7217.07L698.7 7267.07L655.39 7292.07L612.09 7267.07L612.09 7217.07zM655.39 7342.07L698.7 7367.07L698.7 7417.07L655.39 7442.07L612.09 7417.07L612.09 7367.07zM698.7 7417.07L742 7442.07L742 7492.07L698.7 7517.07L655.39 7492.07L655.39 7442.07zM698.7 7567.07L742 7592.07L742 7642.07L698.7 7667.07L655.39 7642.07L655.39 7592.07zM785.3 67.07L828.61 92.07L828.61 142.07L785.3 167.07L742 142.07L742 92.07zM785.3 367.07L828.61 392.07L828.61 442.07L785.3 467.07L742 442.07L742 392.07zM742 442.07L785.3 467.07L785.3 517.07L742 542.07L698.7 517.07L698.7 467.07zM742 892.07L785.3 917.07L785.3 967.07L742 992.07L698.7 967.07L698.7 917.07zM785.3 1567.07L828.61 1592.07L828.61 1642.07L785.3 1667.07L742 1642.07L742 1592.07zM742 1792.07L785.3 1817.07L785.3 1867.07L742 1892.07L698.7 1867.07L698.7 1817.07zM785.3 2167.07L828.61 2192.07L828.61 2242.07L785.3 2267.07L742 2242.07L742 2192.07zM742 2242.07L785.3 2267.07L785.3 2317.07L742 2342.07L698.7 2317.07L698.7 2267.07zM785.3 2467.07L828.61 2492.07L828.61 2542.07L785.3 2567.07L742 2542.07L742 2492.07zM742 2692.07L785.3 2717.07L785.3 2767.07L742 2792.07L698.7 2767.07L698.7 2717.07zM742 3892.07L785.3 3917.07L785.3 3967.07L742 3992.07L698.7 3967.07L698.7 3917.07zM785.3 4117.07L828.61 4142.07L828.61 4192.07L785.3 4217.07L742 4192.07L742 4142.07zM785.3 4567.07L828.61 4592.07L828.61 4642.07L785.3 4667.07L742 4642.07L742 4592.07zM785.3 4717.07L828.61 4742.07L828.61 4792.07L785.3 4817.07L742 4792.07L742 4742.07zM742 4792.07L785.3 4817.07L785.3 4867.07L742 4892.07L698.7 4867.07L698.7 4817.07zM742 5242.07L785.3 5267.07L785.3 5317.07L742 5342.07L698.7 5317.07L698.7 5267.07zM742 5692.07L785.3 5717.07L785.3 5767.07L742 5792.07L698.7 5767.07L698.7 5717.07zM785.3 5767.07L828.61 5792.07L828.61 5842.07L785.3 5867.07L742 5842.07L742 5792.07zM742 5842.07L785.3 5867.07L785.3 5917.07L742 5942.07L698.7 5917.07L698.7 5867.07zM742 6442.07L785.3 6467.07L785.3 6517.07L742 6542.07L698.7 6517.07L698.7 6467.07zM785.3 6517.07L828.61 6542.07L828.61 6592.07L785.3 6617.07L742 6592.07L742 6542.07zM742 6892.07L785.3 6917.07L785.3 6967.07L742 6992.07L698.7 6967.07L698.7 6917.07zM785.3 7267.07L828.61 7292.07L828.61 7342.07L785.3 7367.07L742 7342.07L742 7292.07zM785.3 7417.07L828.61 7442.07L828.61 7492.07L785.3 7517.07L742 7492.07L742 7442.07zM828.61 -7.93L871.91 17.07L871.91 67.07L828.61 92.07L785.3 67.07L785.3 17.07zM871.91 367.07L915.21 392.07L915.21 442.07L871.91 467.07L828.61 442.07L828.61 392.07zM871.91 517.07L915.21 542.07L915.21 592.07L871.91 617.07L828.61 592.07L828.61 542.07zM871.91 667.07L915.21 692.07L915.21 742.07L871.91 767.07L828.61 742.07L828.61 692.07zM871.91 1117.07L915.21 1142.07L915.21 1192.07L871.91 1217.07L828.61 1192.07L828.61 1142.07zM828.61 1642.07L871.91 1667.07L871.91 1717.07L828.61 1742.07L785.3 1717.07L785.3 1667.07zM871.91 1867.07L915.21 1892.07L915.21 1942.07L871.91 1967.07L828.61 1942.07L828.61 1892.07zM871.91 2017.07L915.21 2042.07L915.21 2092.07L871.91 2117.07L828.61 2092.07L828.61 2042.07zM828.61 2092.07L871.91 2117.07L871.91 2167.07L828.61 2192.07L785.3 2167.07L785.3 2117.07zM871.91 2317.07L915.21 2342.07L915.21 2392.07L871.91 2417.07L828.61 2392.07L828.61 2342.07zM828.61 2392.07L871.91 2417.07L871.91 2467.07L828.61 2492.07L785.3 2467.07L785.3 2417.07zM871.91 2767.07L915.21 2792.07L915.21 2842.07L871.91 2867.07L828.61 2842.07L828.61 2792.07zM828.61 3142.07L871.91 3167.07L871.91 3217.07L828.61 3242.07L785.3 3217.07L785.3 3167.07zM828.61 3292.07L871.91 3317.07L871.91 3367.07L828.61 3392.07L785.3 3367.07L785.3 3317.07zM828.61 3592.07L871.91 3617.07L871.91 3667.07L828.61 3692.07L785.3 3667.07L785.3 3617.07zM828.61 3742.07L871.91 3767.07L871.91 3817.07L828.61 3842.07L785.3 3817.07L785.3 3767.07zM871.91 3817.07L915.21 3842.07L915.21 3892.07L871.91 3917.07L828.61 3892.07L828.61 3842.07zM871.91 3967.07L915.21 3992.07L915.21 4042.07L871.91 4067.07L828.61 4042.07L828.61 3992.07zM871.91 4117.07L915.21 4142.07L915.21 4192.07L871.91 4217.07L828.61 4192.07L828.61 4142.07zM828.61 4792.07L871.91 4817.07L871.91 4867.07L828.61 4892.07L785.3 4867.07L785.3 4817.07zM871.91 4867.07L915.21 4892.07L915.21 4942.07L871.91 4967.07L828.61 4942.07L828.61 4892.07zM828.61 4942.07L871.91 4967.07L871.91 5017.07L828.61 5042.07L785.3 5017.07L785.3 4967.07zM871.91 5017.07L915.21 5042.07L915.21 5092.07L871.91 5117.07L828.61 5092.07L828.61 5042.07zM828.61 5692.07L871.91 5717.07L871.91 5767.07L828.61 5792.07L785.3 5767.07L785.3 5717.07zM828.61 5842.07L871.91 5867.07L871.91 5917.07L828.61 5942.07L785.3 5917.07L785.3 5867.07zM871.91 5917.07L915.21 5942.07L915.21 5992.07L871.91 6017.07L828.61 5992.07L828.61 5942.07zM828.61 5992.07L871.91 6017.07L871.91 6067.07L828.61 6092.07L785.3 6067.07L785.3 6017.07zM828.61 6442.07L871.91 6467.07L871.91 6517.07L828.61 6542.07L785.3 6517.07L785.3 6467.07zM871.91 6967.07L915.21 6992.07L915.21 7042.07L871.91 7067.07L828.61 7042.07L828.61 6992.07zM871.91 7267.07L915.21 7292.07L915.21 7342.07L871.91 7367.07L828.61 7342.07L828.61 7292.07zM871.91 7417.07L915.21 7442.07L915.21 7492.07L871.91 7517.07L828.61 7492.07L828.61 7442.07zM871.91 7567.07L915.21 7592.07L915.21 7642.07L871.91 7667.07L828.61 7642.07L828.61 7592.07zM958.51 67.07L1001.82 92.07L1001.82 142.07L958.51 167.07L915.21 142.07L915.21 92.07zM915.21 592.07L958.51 617.07L958.51 667.07L915.21 692.07L871.91 667.07L871.91 617.07zM915.21 892.07L958.51 917.07L958.51 967.07L915.21 992.07L871.91 967.07L871.91 917.07zM958.51 967.07L1001.82 992.07L1001.82 1042.07L958.51 1067.07L915.21 1042.07L915.21 992.07zM958.51 1267.07L1001.82 1292.07L1001.82 1342.07L958.51 1367.07L915.21 1342.07L915.21 1292.07zM915.21 1792.07L958.51 1817.07L958.51 1867.07L915.21 1892.07L871.91 1867.07L871.91 1817.07zM915.21 1942.07L958.51 1967.07L958.51 2017.07L915.21 2042.07L871.91 2017.07L871.91 1967.07zM915.21 2392.07L958.51 2417.07L958.51 2467.07L915.21 2492.07L871.91 2467.07L871.91 2417.07zM958.51 2617.07L1001.82 2642.07L1001.82 2692.07L958.51 2717.07L915.21 2692.07L915.21 2642.07zM958.51 2767.07L1001.82 2792.07L1001.82 2842.07L958.51 2867.07L915.21 2842.07L915.21 2792.07zM915.21 2992.07L958.51 3017.07L958.51 3067.07L915.21 3092.07L871.91 3067.07L871.91 3017.07zM958.51 3067.07L1001.82 3092.07L1001.82 3142.07L958.51 3167.07L915.21 3142.07L915.21 3092.07zM915.21 3292.07L958.51 3317.07L958.51 3367.07L915.21 3392.07L871.91 3367.07L871.91 3317.07zM958.51 3517.07L1001.82 3542.07L1001.82 3592.07L958.51 3617.07L915.21 3592.07L915.21 3542.07zM915.21 3892.07L958.51 3917.07L958.51 3967.07L915.21 3992.07L871.91 3967.07L871.91 3917.07zM958.51 3967.07L1001.82 3992.07L1001.82 4042.07L958.51 4067.07L915.21 4042.07L915.21 3992.07zM915.21 4042.07L958.51 4067.07L958.51 4117.07L915.21 4142.07L871.91 4117.07L871.91 4067.07zM958.51 4117.07L1001.82 4142.07L1001.82 4192.07L958.51 4217.07L915.21 4192.07L915.21 4142.07zM915.21 4492.07L958.51 4517.07L958.51 4567.07L915.21 4592.07L871.91 4567.07L871.91 4517.07zM958.51 4567.07L1001.82 4592.07L1001.82 4642.07L958.51 4667.07L915.21 4642.07L915.21 4592.07zM915.21 4642.07L958.51 4667.07L958.51 4717.07L915.21 4742.07L871.91 4717.07L871.91 4667.07zM915.21 4792.07L958.51 4817.07L958.51 4867.07L915.21 4892.07L871.91 4867.07L871.91 4817.07zM958.51 4867.07L1001.82 4892.07L1001.82 4942.07L958.51 4967.07L915.21 4942.07L915.21 4892.07zM958.51 5467.07L1001.82 5492.07L1001.82 5542.07L958.51 5567.07L915.21 5542.07L915.21 5492.07zM958.51 6367.07L1001.82 6392.07L1001.82 6442.07L958.51 6467.07L915.21 6442.07L915.21 6392.07zM958.51 6517.07L1001.82 6542.07L1001.82 6592.07L958.51 6617.07L915.21 6592.07L915.21 6542.07zM915.21 6592.07L958.51 6617.07L958.51 6667.07L915.21 6692.07L871.91 6667.07L871.91 6617.07zM915.21 6742.07L958.51 6767.07L958.51 6817.07L915.21 6842.07L871.91 6817.07L871.91 6767.07zM958.51 7117.07L1001.82 7142.07L1001.82 7192.07L958.51 7217.07L915.21 7192.07L915.21 7142.07zM915.21 7342.07L958.51 7367.07L958.51 7417.07L915.21 7442.07L871.91 7417.07L871.91 7367.07zM1001.82 -7.93L1045.12 17.07L1045.12 67.07L1001.82 92.07L958.51 67.07L958.51 17.07zM1045.12 67.07L1088.42 92.07L1088.42 142.07L1045.12 167.07L1001.82 142.07L1001.82 92.07zM1045.12 517.07L1088.42 542.07L1088.42 592.07L1045.12 617.07L1001.82 592.07L1001.82 542.07zM1001.82 592.07L1045.12 617.07L1045.12 667.07L1001.82 692.07L958.51 667.07L958.51 617.07zM1001.82 1042.07L1045.12 1067.07L1045.12 1117.07L1001.82 1142.07L958.51 1117.07L958.51 1067.07zM1045.12 1417.07L1088.42 1442.07L1088.42 1492.07L1045.12 1517.07L1001.82 1492.07L1001.82 1442.07zM1001.82 2092.07L1045.12 2117.07L1045.12 2167.07L1001.82 2192.07L958.51 2167.07L958.51 2117.07zM1045.12 2317.07L1088.42 2342.07L1088.42 2392.07L1045.12 2417.07L1001.82 2392.07L1001.82 2342.07zM1045.12 2617.07L1088.42 2642.07L1088.42 2692.07L1045.12 2717.07L1001.82 2692.07L1001.82 2642.07zM1001.82 3442.07L1045.12 3467.07L1045.12 3517.07L1001.82 3542.07L958.51 3517.07L958.51 3467.07zM1045.12 4267.07L1088.42 4292.07L1088.42 4342.07L1045.12 4367.07L1001.82 4342.07L1001.82 4292.07zM1045.12 4417.07L1088.42 4442.07L1088.42 4492.07L1045.12 4517.07L1001.82 4492.07L1001.82 4442.07zM1045.12 5017.07L1088.42 5042.07L1088.42 5092.07L1045.12 5117.07L1001.82 5092.07L1001.82 5042.07zM1001.82 5092.07L1045.12 5117.07L1045.12 5167.07L1001.82 5192.07L958.51 5167.07L958.51 5117.07zM1001.82 5242.07L1045.12 5267.07L1045.12 5317.07L1001.82 5342.07L958.51 5317.07L958.51 5267.07zM1045.12 5617.07L1088.42 5642.07L1088.42 5692.07L1045.12 5717.07L1001.82 5692.07L1001.82 5642.07zM1045.12 6067.07L1088.42 6092.07L1088.42 6142.07L1045.12 6167.07L1001.82 6142.07L1001.82 6092.07zM1045.12 6217.07L1088.42 6242.07L1088.42 6292.07L1045.12 6317.07L1001.82 6292.07L1001.82 6242.07zM1001.82 6292.07L1045.12 6317.07L1045.12 6367.07L1001.82 6392.07L958.51 6367.07L958.51 6317.07zM1001.82 6892.07L1045.12 6917.07L1045.12 6967.07L1001.82 6992.07L958.51 6967.07L958.51 6917.07zM1001.82 7492.07L1045.12 7517.07L1045.12 7567.07L1001.82 7592.07L958.51 7567.07L958.51 7517.07zM1045.12 7567.07L1088.42 7592.07L1088.42 7642.07L1045.12 7667.07L1001.82 7642.07L1001.82 7592.07zM1088.42 -7.93L1131.72 17.07L1131.72 67.07L1088.42 92.07L1045.12 67.07L1045.12 17.07zM1088.42 892.07L1131.72 917.07L1131.72 967.07L1088.42 992.07L1045.12 967.07L1045.12 917.07zM1131.72 1717.07L1175.03 1742.07L1175.03 1792.07L1131.72 1817.07L1088.42 1792.07L1088.42 1742.07zM1131.72 1867.07L1175.03 1892.07L1175.03 1942.07L1131.72 1967.07L1088.42 1942.07L1088.42 1892.07zM1131.72 2317.07L1175.03 2342.07L1175.03 2392.07L1131.72 2417.07L1088.42 2392.07L1088.42 2342.07zM1131.72 2467.07L1175.03 2492.07L1175.03 2542.07L1131.72 2567.07L1088.42 2542.07L1088.42 2492.07zM1088.42 3142.07L1131.72 3167.07L1131.72 3217.07L1088.42 3242.07L1045.12 3217.07L1045.12 3167.07zM1088.42 3742.07L1131.72 3767.07L1131.72 3817.07L1088.42 3842.07L1045.12 3817.07L1045.12 3767.07zM1131.72 4117.07L1175.03 4142.07L1175.03 4192.07L1131.72 4217.07L1088.42 4192.07L1088.42 4142.07zM1088.42 4342.07L1131.72 4367.07L1131.72 4417.07L1088.42 4442.07L1045.12 4417.07L1045.12 4367.07zM1131.72 4867.07L1175.03 4892.07L1175.03 4942.07L1131.72 4967.07L1088.42 4942.07L1088.42 4892.07zM1088.42 5542.07L1131.72 5567.07L1131.72 5617.07L1088.42 5642.07L1045.12 5617.07L1045.12 5567.07zM1088.42 5842.07L1131.72 5867.07L1131.72 5917.07L1088.42 5942.07L1045.12 5917.07L1045.12 5867.07zM1131.72 5917.07L1175.03 5942.07L1175.03 5992.07L1131.72 6017.07L1088.42 5992.07L1088.42 5942.07zM1131.72 6217.07L1175.03 6242.07L1175.03 6292.07L1131.72 6317.07L1088.42 6292.07L1088.42 6242.07zM1175.03 -7.93L1218.33 17.07L1218.33 67.07L1175.03 92.07L1131.72 67.07L1131.72 17.07zM1175.03 142.07L1218.33 167.07L1218.33 217.07L1175.03 242.07L1131.72 217.07L1131.72 167.07zM1218.33 217.07L1261.63 242.07L1261.63 292.07L1218.33 317.07L1175.03 292.07L1175.03 242.07zM1175.03 292.07L1218.33 317.07L1218.33 367.07L1175.03 392.07L1131.72 367.07L1131.72 317.07zM1218.33 1417.07L1261.63 1442.07L1261.63 1492.07L1218.33 1517.07L1175.03 1492.07L1175.03 1442.07zM1175.03 1492.07L1218.33 1517.07L1218.33 1567.07L1175.03 1592.07L1131.72 1567.07L1131.72 1517.07zM1175.03 1642.07L1218.33 1667.07L1218.33 1717.07L1175.03 1742.07L1131.72 1717.07L1131.72 1667.07zM1175.03 1942.07L1218.33 1967.07L1218.33 2017.07L1175.03 2042.07L1131.72 2017.07L1131.72 1967.07zM1218.33 2017.07L1261.63 2042.07L1261.63 2092.07L1218.33 2117.07L1175.03 2092.07L1175.03 2042.07zM1175.03 2392.07L1218.33 2417.07L1218.33 2467.07L1175.03 2492.07L1131.72 2467.07L1131.72 2417.07zM1175.03 2692.07L1218.33 2717.07L1218.33 2767.07L1175.03 2792.07L1131.72 2767.07L1131.72 2717.07zM1218.33 2767.07L1261.63 2792.07L1261.63 2842.07L1218.33 2867.07L1175.03 2842.07L1175.03 2792.07zM1218.33 3217.07L1261.63 3242.07L1261.63 3292.07L1218.33 3317.07L1175.03 3292.07L1175.03 3242.07zM1175.03 3292.07L1218.33 3317.07L1218.33 3367.07L1175.03 3392.07L1131.72 3367.07L1131.72 3317.07zM1175.03 3742.07L1218.33 3767.07L1218.33 3817.07L1175.03 3842.07L1131.72 3817.07L1131.72 3767.07zM1175.03 4192.07L1218.33 4217.07L1218.33 4267.07L1175.03 4292.07L1131.72 4267.07L1131.72 4217.07zM1218.33 4267.07L1261.63 4292.07L1261.63 4342.07L1218.33 4367.07L1175.03 4342.07L1175.03 4292.07zM1218.33 4417.07L1261.63 4442.07L1261.63 4492.07L1218.33 4517.07L1175.03 4492.07L1175.03 4442.07zM1175.03 4492.07L1218.33 4517.07L1218.33 4567.07L1175.03 4592.07L1131.72 4567.07L1131.72 4517.07zM1218.33 5167.07L1261.63 5192.07L1261.63 5242.07L1218.33 5267.07L1175.03 5242.07L1175.03 5192.07zM1175.03 5242.07L1218.33 5267.07L1218.33 5317.07L1175.03 5342.07L1131.72 5317.07L1131.72 5267.07zM1218.33 5467.07L1261.63 5492.07L1261.63 5542.07L1218.33 5567.07L1175.03 5542.07L1175.03 5492.07zM1175.03 5842.07L1218.33 5867.07L1218.33 5917.07L1175.03 5942.07L1131.72 5917.07L1131.72 5867.07zM1175.03 5992.07L1218.33 6017.07L1218.33 6067.07L1175.03 6092.07L1131.72 6067.07L1131.72 6017.07zM1175.03 6142.07L1218.33 6167.07L1218.33 6217.07L1175.03 6242.07L1131.72 6217.07L1131.72 6167.07zM1218.33 6217.07L1261.63 6242.07L1261.63 6292.07L1218.33 6317.07L1175.03 6292.07L1175.03 6242.07zM1218.33 6367.07L1261.63 6392.07L1261.63 6442.07L1218.33 6467.07L1175.03 6442.07L1175.03 6392.07zM1175.03 6442.07L1218.33 6467.07L1218.33 6517.07L1175.03 6542.07L1131.72 6517.07L1131.72 6467.07zM1218.33 6517.07L1261.63 6542.07L1261.63 6592.07L1218.33 6617.07L1175.03 6592.07L1175.03 6542.07zM1218.33 7117.07L1261.63 7142.07L1261.63 7192.07L1218.33 7217.07L1175.03 7192.07L1175.03 7142.07zM1175.03 7192.07L1218.33 7217.07L1218.33 7267.07L1175.03 7292.07L1131.72 7267.07L1131.72 7217.07zM1218.33 7267.07L1261.63 7292.07L1261.63 7342.07L1218.33 7367.07L1175.03 7342.07L1175.03 7292.07zM1175.03 7342.07L1218.33 7367.07L1218.33 7417.07L1175.03 7442.07L1131.72 7417.07L1131.72 7367.07zM1218.33 7567.07L1261.63 7592.07L1261.63 7642.07L1218.33 7667.07L1175.03 7642.07L1175.03 7592.07zM1304.93 217.07L1348.24 242.07L1348.24 292.07L1304.93 317.07L1261.63 292.07L1261.63 242.07zM1261.63 442.07L1304.93 467.07L1304.93 517.07L1261.63 542.07L1218.33 517.07L1218.33 467.07zM1304.93 817.07L1348.24 842.07L1348.24 892.07L1304.93 917.07L1261.63 892.07L1261.63 842.07zM1261.63 1192.07L1304.93 1217.07L1304.93 1267.07L1261.63 1292.07L1218.33 1267.07L1218.33 1217.07zM1304.93 1267.07L1348.24 1292.07L1348.24 1342.07L1304.93 1367.07L1261.63 1342.07L1261.63 1292.07zM1304.93 1417.07L1348.24 1442.07L1348.24 1492.07L1304.93 1517.07L1261.63 1492.07L1261.63 1442.07zM1261.63 1792.07L1304.93 1817.07L1304.93 1867.07L1261.63 1892.07L1218.33 1867.07L1218.33 1817.07zM1261.63 2242.07L1304.93 2267.07L1304.93 2317.07L1261.63 2342.07L1218.33 2317.07L1218.33 2267.07zM1261.63 2542.07L1304.93 2567.07L1304.93 2617.07L1261.63 2642.07L1218.33 2617.07L1218.33 2567.07zM1261.63 2692.07L1304.93 2717.07L1304.93 2767.07L1261.63 2792.07L1218.33 2767.07L1218.33 2717.07zM1304.93 2767.07L1348.24 2792.07L1348.24 2842.07L1304.93 2867.07L1261.63 2842.07L1261.63 2792.07zM1304.93 2917.07L1348.24 2942.07L1348.24 2992.07L1304.93 3017.07L1261.63 2992.07L1261.63 2942.07zM1261.63 3292.07L1304.93 3317.07L1304.93 3367.07L1261.63 3392.07L1218.33 3367.07L1218.33 3317.07zM1261.63 3592.07L1304.93 3617.07L1304.93 3667.07L1261.63 3692.07L1218.33 3667.07L1218.33 3617.07zM1304.93 3967.07L1348.24 3992.07L1348.24 4042.07L1304.93 4067.07L1261.63 4042.07L1261.63 3992.07zM1304.93 4417.07L1348.24 4442.07L1348.24 4492.07L1304.93 4517.07L1261.63 4492.07L1261.63 4442.07zM1261.63 4492.07L1304.93 4517.07L1304.93 4567.07L1261.63 4592.07L1218.33 4567.07L1218.33 4517.07zM1304.93 4567.07L1348.24 4592.07L1348.24 4642.07L1304.93 4667.07L1261.63 4642.07L1261.63 4592.07zM1304.93 4717.07L1348.24 4742.07L1348.24 4792.07L1304.93 4817.07L1261.63 4792.07L1261.63 4742.07zM1261.63 4942.07L1304.93 4967.07L1304.93 5017.07L1261.63 5042.07L1218.33 5017.07L1218.33 4967.07zM1261.63 5092.07L1304.93 5117.07L1304.93 5167.07L1261.63 5192.07L1218.33 5167.07L1218.33 5117.07zM1304.93 5167.07L1348.24 5192.07L1348.24 5242.07L1304.93 5267.07L1261.63 5242.07L1261.63 5192.07zM1261.63 5242.07L1304.93 5267.07L1304.93 5317.07L1261.63 5342.07L1218.33 5317.07L1218.33 5267.07zM1304.93 6067.07L1348.24 6092.07L1348.24 6142.07L1304.93 6167.07L1261.63 6142.07L1261.63 6092.07zM1304.93 6217.07L1348.24 6242.07L1348.24 6292.07L1304.93 6317.07L1261.63 6292.07L1261.63 6242.07zM1261.63 6442.07L1304.93 6467.07L1304.93 6517.07L1261.63 6542.07L1218.33 6517.07L1218.33 6467.07zM1304.93 6517.07L1348.24 6542.07L1348.24 6592.07L1304.93 6617.07L1261.63 6592.07L1261.63 6542.07zM1261.63 6742.07L1304.93 6767.07L1304.93 6817.07L1261.63 6842.07L1218.33 6817.07L1218.33 6767.07zM1261.63 6892.07L1304.93 6917.07L1304.93 6967.07L1261.63 6992.07L1218.33 6967.07L1218.33 6917.07zM1304.93 6967.07L1348.24 6992.07L1348.24 7042.07L1304.93 7067.07L1261.63 7042.07L1261.63 6992.07zM1261.63 7042.07L1304.93 7067.07L1304.93 7117.07L1261.63 7142.07L1218.33 7117.07L1218.33 7067.07zM1304.93 7417.07L1348.24 7442.07L1348.24 7492.07L1304.93 7517.07L1261.63 7492.07L1261.63 7442.07zM1261.63 7492.07L1304.93 7517.07L1304.93 7567.07L1261.63 7592.07L1218.33 7567.07L1218.33 7517.07zM1391.54 67.07L1434.84 92.07L1434.84 142.07L1391.54 167.07L1348.24 142.07L1348.24 92.07zM1348.24 142.07L1391.54 167.07L1391.54 217.07L1348.24 242.07L1304.93 217.07L1304.93 167.07zM1391.54 367.07L1434.84 392.07L1434.84 442.07L1391.54 467.07L1348.24 442.07L1348.24 392.07zM1348.24 742.07L1391.54 767.07L1391.54 817.07L1348.24 842.07L1304.93 817.07L1304.93 767.07zM1348.24 892.07L1391.54 917.07L1391.54 967.07L1348.24 992.07L1304.93 967.07L1304.93 917.07zM1391.54 967.07L1434.84 992.07L1434.84 1042.07L1391.54 1067.07L1348.24 1042.07L1348.24 992.07zM1391.54 2167.07L1434.84 2192.07L1434.84 2242.07L1391.54 2267.07L1348.24 2242.07L1348.24 2192.07zM1348.24 2692.07L1391.54 2717.07L1391.54 2767.07L1348.24 2792.07L1304.93 2767.07L1304.93 2717.07zM1391.54 3217.07L1434.84 3242.07L1434.84 3292.07L1391.54 3317.07L1348.24 3292.07L1348.24 3242.07zM1391.54 3667.07L1434.84 3692.07L1434.84 3742.07L1391.54 3767.07L1348.24 3742.07L1348.24 3692.07zM1391.54 3817.07L1434.84 3842.07L1434.84 3892.07L1391.54 3917.07L1348.24 3892.07L1348.24 3842.07zM1348.24 4042.07L1391.54 4067.07L1391.54 4117.07L1348.24 4142.07L1304.93 4117.07L1304.93 4067.07zM1391.54 4567.07L1434.84 4592.07L1434.84 4642.07L1391.54 4667.07L1348.24 4642.07L1348.24 4592.07zM1348.24 5542.07L1391.54 5567.07L1391.54 5617.07L1348.24 5642.07L1304.93 5617.07L1304.93 5567.07zM1391.54 5767.07L1434.84 5792.07L1434.84 5842.07L1391.54 5867.07L1348.24 5842.07L1348.24 5792.07zM1348.24 5992.07L1391.54 6017.07L1391.54 6067.07L1348.24 6092.07L1304.93 6067.07L1304.93 6017.07zM1391.54 6667.07L1434.84 6692.07L1434.84 6742.07L1391.54 6767.07L1348.24 6742.07L1348.24 6692.07zM1391.54 7117.07L1434.84 7142.07L1434.84 7192.07L1391.54 7217.07L1348.24 7192.07L1348.24 7142.07zM1391.54 7417.07L1434.84 7442.07L1434.84 7492.07L1391.54 7517.07L1348.24 7492.07L1348.24 7442.07zM1478.14 217.07L1521.45 242.07L1521.45 292.07L1478.14 317.07L1434.84 292.07L1434.84 242.07zM1434.84 742.07L1478.14 767.07L1478.14 817.07L1434.84 842.07L1391.54 817.07L1391.54 767.07zM1478.14 1267.07L1521.45 1292.07L1521.45 1342.07L1478.14 1367.07L1434.84 1342.07L1434.84 1292.07zM1434.84 1342.07L1478.14 1367.07L1478.14 1417.07L1434.84 1442.07L1391.54 1417.07L1391.54 1367.07zM1478.14 1417.07L1521.45 1442.07L1521.45 1492.07L1478.14 1517.07L1434.84 1492.07L1434.84 1442.07zM1434.84 1492.07L1478.14 1517.07L1478.14 1567.07L1434.84 1592.07L1391.54 1567.07L1391.54 1517.07zM1434.84 1642.07L1478.14 1667.07L1478.14 1717.07L1434.84 1742.07L1391.54 1717.07L1391.54 1667.07zM1478.14 1717.07L1521.45 1742.07L1521.45 1792.07L1478.14 1817.07L1434.84 1792.07L1434.84 1742.07zM1478.14 1867.07L1521.45 1892.07L1521.45 1942.07L1478.14 1967.07L1434.84 1942.07L1434.84 1892.07zM1478.14 2167.07L1521.45 2192.07L1521.45 2242.07L1478.14 2267.07L1434.84 2242.07L1434.84 2192.07zM1434.84 2242.07L1478.14 2267.07L1478.14 2317.07L1434.84 2342.07L1391.54 2317.07L1391.54 2267.07zM1478.14 2617.07L1521.45 2642.07L1521.45 2692.07L1478.14 2717.07L1434.84 2692.07L1434.84 2642.07zM1478.14 2767.07L1521.45 2792.07L1521.45 2842.07L1478.14 2867.07L1434.84 2842.07L1434.84 2792.07zM1478.14 2917.07L1521.45 2942.07L1521.45 2992.07L1478.14 3017.07L1434.84 2992.07L1434.84 2942.07zM1434.84 3292.07L1478.14 3317.07L1478.14 3367.07L1434.84 3392.07L1391.54 3367.07L1391.54 3317.07zM1478.14 3967.07L1521.45 3992.07L1521.45 4042.07L1478.14 4067.07L1434.84 4042.07L1434.84 3992.07zM1478.14 4267.07L1521.45 4292.07L1521.45 4342.07L1478.14 4367.07L1434.84 4342.07L1434.84 4292.07zM1434.84 4642.07L1478.14 4667.07L1478.14 4717.07L1434.84 4742.07L1391.54 4717.07L1391.54 4667.07zM1478.14 4717.07L1521.45 4742.07L1521.45 4792.07L1478.14 4817.07L1434.84 4792.07L1434.84 4742.07zM1478.14 4867.07L1521.45 4892.07L1521.45 4942.07L1478.14 4967.07L1434.84 4942.07L1434.84 4892.07zM1478.14 5167.07L1521.45 5192.07L1521.45 5242.07L1478.14 5267.07L1434.84 5242.07L1434.84 5192.07zM1478.14 5917.07L1521.45 5942.07L1521.45 5992.07L1478.14 6017.07L1434.84 5992.07L1434.84 5942.07zM1434.84 5992.07L1478.14 6017.07L1478.14 6067.07L1434.84 6092.07L1391.54 6067.07L1391.54 6017.07zM1434.84 6592.07L1478.14 6617.07L1478.14 6667.07L1434.84 6692.07L1391.54 6667.07L1391.54 6617.07zM1434.84 6892.07L1478.14 6917.07L1478.14 6967.07L1434.84 6992.07L1391.54 6967.07L1391.54 6917.07zM1478.14 7117.07L1521.45 7142.07L1521.45 7192.07L1478.14 7217.07L1434.84 7192.07L1434.84 7142.07zM1434.84 7492.07L1478.14 7517.07L1478.14 7567.07L1434.84 7592.07L1391.54 7567.07L1391.54 7517.07zM1478.14 7567.07L1521.45 7592.07L1521.45 7642.07L1478.14 7667.07L1434.84 7642.07L1434.84 7592.07z" stroke="rgba(105, 152, 171, 1)" stroke-width="2"></path></g><defs><mask id="SvgjsMask1144"><rect width="1440" height="7560" fill="#ffffff"></rect></mask></defs></svg>