<svg width="256" height="291" viewBox="0 0 256 291" fill="none" xmlns="http://www.w3.org/2000/svg">
<path d="M127.844 290.088L23.6616 261.166L0.445068 0.765625H255.555L232.314 261.125L127.844 290.088Z" fill="#264DE4"/>
<path d="M212.417 244.546L232.278 22.0571H128V267.95L212.417 244.546Z" fill="#2965F1"/>
<path d="M53.6685 118.636L56.5309 150.573H128V118.636H53.6685Z" fill="#EBEBEB"/>
<path d="M47.917 53.9946L50.8202 85.932H128V53.9946H47.917Z" fill="#EBEBEB"/>
<path d="M128 201.58L127.86 201.618L92.2913 192.013L90.0175 166.542H57.9578L62.4321 216.688L127.853 234.849L128 234.808V201.58Z" fill="#EBEBEB"/>
<path d="M202.127 118.636L207.892 53.9946H127.889V85.932H172.892L169.986 118.636H127.889V150.573H167.216L163.509 191.993L127.889 201.607V234.833L193.362 216.688L193.842 211.292L201.347 127.212L202.127 118.636Z" fill="white"/>
</svg>
