<svg width="256" height="291" viewBox="0 0 256 291" fill="none" xmlns="http://www.w3.org/2000/svg">
<path d="M255.555 0.765625L232.314 261.125L127.844 290.088L23.6616 261.166L0.445068 0.765625H255.555Z" fill="#E44D26"/>
<path d="M128 267.95L212.417 244.546L232.278 22.0571H128V267.95Z" fill="#F16529"/>
<path d="M82.8202 85.932H128V53.9946H47.917L48.6815 62.5629L56.531 150.573H128V118.636H85.7389L82.8202 85.932Z" fill="#EBEBEB"/>
<path d="M90.0175 166.542H57.9578L62.4321 216.688L127.853 234.849L128 234.808V201.58L127.86 201.618L92.2913 192.013L90.0175 166.542Z" fill="#EBEBEB"/>
<path d="M127.889 150.573H167.216L163.509 191.993L127.889 201.607V234.833L193.362 216.688L193.842 211.292L201.347 127.212L202.127 118.636H127.889V150.573Z" fill="white"/>
<path d="M127.889 85.854V85.932H205.033L205.673 78.7535L207.128 62.5629L207.892 53.9946H127.889V85.854Z" fill="white"/>
</svg>
